<?xml version="1.0" encoding="utf-8" standalone="no"?>
<!DOCTYPE svg PUBLIC "-//W3C//DTD SVG 1.1//EN"
  "http://www.w3.org/Graphics/SVG/1.1/DTD/svg11.dtd">
<svg xmlns:xlink="http://www.w3.org/1999/xlink" width="597.93375pt" height="425.69pt" viewBox="0 0 597.93375 425.69" xmlns="http://www.w3.org/2000/svg" version="1.1">
 <metadata>
  <rdf:RDF xmlns:dc="http://purl.org/dc/elements/1.1/" xmlns:cc="http://creativecommons.org/ns#" xmlns:rdf="http://www.w3.org/1999/02/22-rdf-syntax-ns#">
   <cc:Work>
    <dc:type rdf:resource="http://purl.org/dc/dcmitype/StillImage"/>
    <dc:date>2025-11-03T21:59:13.507606</dc:date>
    <dc:format>image/svg+xml</dc:format>
    <dc:creator>
     <cc:Agent>
      <dc:title>Matplotlib v3.10.0, https://matplotlib.org/</dc:title>
     </cc:Agent>
    </dc:creator>
   </cc:Work>
  </rdf:RDF>
 </metadata>
 <defs>
  <style type="text/css">*{stroke-linejoin: round; stroke-linecap: butt}</style>
 </defs>
 <g id="figure_1">
  <g id="patch_1">
   <path d="M 0 425.69 
L 597.93375 425.69 
L 597.93375 0 
L 0 0 
z
" style="fill: #ffffff"/>
  </g>
  <g id="axes_1">
   <g id="patch_2">
    <path d="M 176.437187 386.198125 
L 562.247187 386.198125 
L 562.247187 22.318125 
L 176.437187 22.318125 
z
" style="fill: #ffffff"/>
   </g>
   <g id="patch_3">
    <path d="M 176.437187 369.658125 
L 543.875283 369.658125 
L 543.875283 362.265946 
L 176.437187 362.265946 
z
" clip-path="url(#p149c1d8a37)" style="fill: #ff0000"/>
   </g>
   <g id="patch_4">
    <path d="M 176.437187 360.417902 
L 365.667948 360.417902 
L 365.667948 353.025723 
L 176.437187 353.025723 
z
" clip-path="url(#p149c1d8a37)" style="fill: #00ff00"/>
   </g>
   <g id="patch_5">
    <path d="M 176.437187 351.177678 
L 317.40877 351.177678 
L 317.40877 343.785499 
L 176.437187 343.785499 
z
" clip-path="url(#p149c1d8a37)" style="fill: #ff0000"/>
   </g>
   <g id="patch_6">
    <path d="M 176.437187 341.937455 
L 188.017276 341.937455 
L 188.017276 334.545276 
L 176.437187 334.545276 
z
" clip-path="url(#p149c1d8a37)" style="fill: #00ff00"/>
   </g>
   <g id="patch_7">
    <path d="M 176.437187 332.697231 
L 186.414853 332.697231 
L 186.414853 325.305052 
L 176.437187 325.305052 
z
" clip-path="url(#p149c1d8a37)" style="fill: #ff0000"/>
   </g>
   <g id="patch_8">
    <path d="M 176.437187 323.457008 
L 184.871001 323.457008 
L 184.871001 316.064829 
L 176.437187 316.064829 
z
" clip-path="url(#p149c1d8a37)" style="fill: #00ff00"/>
   </g>
   <g id="patch_9">
    <path d="M 176.437187 314.216784 
L 184.221344 314.216784 
L 184.221344 306.824605 
L 176.437187 306.824605 
z
" clip-path="url(#p149c1d8a37)" style="fill: #ff0000"/>
   </g>
   <g id="patch_10">
    <path d="M 176.437187 304.976561 
L 183.654589 304.976561 
L 183.654589 297.584382 
L 176.437187 297.584382 
z
" clip-path="url(#p149c1d8a37)" style="fill: #00ff00"/>
   </g>
   <g id="patch_11">
    <path d="M 176.437187 295.736337 
L 183.143665 295.736337 
L 183.143665 288.344159 
L 176.437187 288.344159 
z
" clip-path="url(#p149c1d8a37)" style="fill: #ff0000"/>
   </g>
   <g id="patch_12">
    <path d="M 176.437187 286.496114 
L 182.91889 286.496114 
L 182.91889 279.103935 
L 176.437187 279.103935 
z
" clip-path="url(#p149c1d8a37)" style="fill: #00ff00"/>
   </g>
   <g id="patch_13">
    <path d="M 176.437187 277.25589 
L 182.771617 277.25589 
L 182.771617 269.863712 
L 176.437187 269.863712 
z
" clip-path="url(#p149c1d8a37)" style="fill: #ff0000"/>
   </g>
   <g id="patch_14">
    <path d="M 176.437187 268.015667 
L 182.685022 268.015667 
L 182.685022 260.623488 
L 176.437187 260.623488 
z
" clip-path="url(#p149c1d8a37)" style="fill: #00ff00"/>
   </g>
   <g id="patch_15">
    <path d="M 176.437187 258.775443 
L 182.350325 258.775443 
L 182.350325 251.383265 
L 176.437187 251.383265 
z
" clip-path="url(#p149c1d8a37)" style="fill: #ff0000"/>
   </g>
   <g id="patch_16">
    <path d="M 176.437187 249.53522 
L 181.692528 249.53522 
L 181.692528 242.143041 
L 176.437187 242.143041 
z
" clip-path="url(#p149c1d8a37)" style="fill: #00ff00"/>
   </g>
   <g id="patch_17">
    <path d="M 176.437187 240.294997 
L 181.148409 240.294997 
L 181.148409 232.902818 
L 176.437187 232.902818 
z
" clip-path="url(#p149c1d8a37)" style="fill: #ff0000"/>
   </g>
   <g id="patch_18">
    <path d="M 176.437187 231.054773 
L 180.898384 231.054773 
L 180.898384 223.662594 
L 176.437187 223.662594 
z
" clip-path="url(#p149c1d8a37)" style="fill: #00ff00"/>
   </g>
   <g id="patch_19">
    <path d="M 176.437187 221.81455 
L 180.781878 221.81455 
L 180.781878 214.422371 
L 176.437187 214.422371 
z
" clip-path="url(#p149c1d8a37)" style="fill: #ff0000"/>
   </g>
   <g id="patch_20">
    <path d="M 176.437187 212.574326 
L 180.486176 212.574326 
L 180.486176 205.182147 
L 176.437187 205.182147 
z
" clip-path="url(#p149c1d8a37)" style="fill: #00ff00"/>
   </g>
   <g id="patch_21">
    <path d="M 176.437187 203.334103 
L 180.428178 203.334103 
L 180.428178 195.941924 
L 176.437187 195.941924 
z
" clip-path="url(#p149c1d8a37)" style="fill: #ff0000"/>
   </g>
   <g id="patch_22">
    <path d="M 176.437187 194.093879 
L 180.422565 194.093879 
L 180.422565 186.7017 
L 176.437187 186.7017 
z
" clip-path="url(#p149c1d8a37)" style="fill: #00ff00"/>
   </g>
   <g id="patch_23">
    <path d="M 176.437187 184.853656 
L 180.319157 184.853656 
L 180.319157 177.461477 
L 176.437187 177.461477 
z
" clip-path="url(#p149c1d8a37)" style="fill: #ff0000"/>
   </g>
   <g id="patch_24">
    <path d="M 176.437187 175.613432 
L 180.286092 175.613432 
L 180.286092 168.221253 
L 176.437187 168.221253 
z
" clip-path="url(#p149c1d8a37)" style="fill: #00ff00"/>
   </g>
   <g id="patch_25">
    <path d="M 176.437187 166.373209 
L 180.058095 166.373209 
L 180.058095 158.98103 
L 176.437187 158.98103 
z
" clip-path="url(#p149c1d8a37)" style="fill: #ff0000"/>
   </g>
   <g id="patch_26">
    <path d="M 176.437187 157.132985 
L 179.543643 157.132985 
L 179.543643 149.740807 
L 176.437187 149.740807 
z
" clip-path="url(#p149c1d8a37)" style="fill: #00ff00"/>
   </g>
   <g id="patch_27">
    <path d="M 176.437187 147.892762 
L 178.736123 147.892762 
L 178.736123 140.500583 
L 176.437187 140.500583 
z
" clip-path="url(#p149c1d8a37)" style="fill: #ff0000"/>
   </g>
   <g id="patch_28">
    <path d="M 176.437187 138.652538 
L 178.374934 138.652538 
L 178.374934 131.26036 
L 176.437187 131.26036 
z
" clip-path="url(#p149c1d8a37)" style="fill: #00ff00"/>
   </g>
   <g id="patch_29">
    <path d="M 176.437187 129.412315 
L 178.092527 129.412315 
L 178.092527 122.020136 
L 176.437187 122.020136 
z
" clip-path="url(#p149c1d8a37)" style="fill: #ff0000"/>
   </g>
   <g id="patch_30">
    <path d="M 176.437187 120.172091 
L 178.0764 120.172091 
L 178.0764 112.779913 
L 176.437187 112.779913 
z
" clip-path="url(#p149c1d8a37)" style="fill: #00ff00"/>
   </g>
   <g id="patch_31">
    <path d="M 176.437187 110.931868 
L 177.774391 110.931868 
L 177.774391 103.539689 
L 176.437187 103.539689 
z
" clip-path="url(#p149c1d8a37)" style="fill: #ff0000"/>
   </g>
   <g id="patch_32">
    <path d="M 176.437187 101.691645 
L 177.436327 101.691645 
L 177.436327 94.299466 
L 176.437187 94.299466 
z
" clip-path="url(#p149c1d8a37)" style="fill: #00ff00"/>
   </g>
   <g id="patch_33">
    <path d="M 176.437187 92.451421 
L 177.079651 92.451421 
L 177.079651 85.059242 
L 176.437187 85.059242 
z
" clip-path="url(#p149c1d8a37)" style="fill: #ff0000"/>
   </g>
   <g id="patch_34">
    <path d="M 176.437187 83.211198 
L 177.010401 83.211198 
L 177.010401 75.819019 
L 176.437187 75.819019 
z
" clip-path="url(#p149c1d8a37)" style="fill: #00ff00"/>
   </g>
   <g id="patch_35">
    <path d="M 176.437187 73.970974 
L 176.98977 73.970974 
L 176.98977 66.578795 
L 176.437187 66.578795 
z
" clip-path="url(#p149c1d8a37)" style="fill: #ff0000"/>
   </g>
   <g id="patch_36">
    <path d="M 176.437187 64.730751 
L 176.533991 64.730751 
L 176.533991 57.338572 
L 176.437187 57.338572 
z
" clip-path="url(#p149c1d8a37)" style="fill: #00ff00"/>
   </g>
   <g id="patch_37">
    <path d="M 176.437187 55.490527 
L 176.505043 55.490527 
L 176.505043 48.098348 
L 176.437187 48.098348 
z
" clip-path="url(#p149c1d8a37)" style="fill: #ff0000"/>
   </g>
   <g id="patch_38">
    <path d="M 176.437187 46.250304 
L 176.437187 46.250304 
L 176.437187 38.858125 
L 176.437187 38.858125 
z
" clip-path="url(#p149c1d8a37)" style="fill: #00ff00"/>
   </g>
   <g id="matplotlib.axis_1">
    <g id="xtick_1">
     <g id="line2d_1">
      <defs>
       <path id="mad2534defa" d="M 0 0 
L 0 3.5 
" style="stroke: #000000; stroke-width: 0.8"/>
      </defs>
      <g>
       <use xlink:href="#mad2534defa" x="176.437187" y="386.198125" style="stroke: #000000; stroke-width: 0.8"/>
      </g>
     </g>
     <g id="text_1">
      <!-- 0.0 -->
      <g transform="translate(168.485625 400.796562) scale(0.1 -0.1)">
       <defs>
        <path id="DejaVuSans-30" d="M 2034 4250 
Q 1547 4250 1301 3770 
Q 1056 3291 1056 2328 
Q 1056 1369 1301 889 
Q 1547 409 2034 409 
Q 2525 409 2770 889 
Q 3016 1369 3016 2328 
Q 3016 3291 2770 3770 
Q 2525 4250 2034 4250 
z
M 2034 4750 
Q 2819 4750 3233 4129 
Q 3647 3509 3647 2328 
Q 3647 1150 3233 529 
Q 2819 -91 2034 -91 
Q 1250 -91 836 529 
Q 422 1150 422 2328 
Q 422 3509 836 4129 
Q 1250 4750 2034 4750 
z
" transform="scale(0.015625)"/>
        <path id="DejaVuSans-2e" d="M 684 794 
L 1344 794 
L 1344 0 
L 684 0 
L 684 794 
z
" transform="scale(0.015625)"/>
       </defs>
       <use xlink:href="#DejaVuSans-30"/>
       <use xlink:href="#DejaVuSans-2e" transform="translate(63.623047 0)"/>
       <use xlink:href="#DejaVuSans-30" transform="translate(95.410156 0)"/>
      </g>
     </g>
    </g>
    <g id="xtick_2">
     <g id="line2d_2">
      <g>
       <use xlink:href="#mad2534defa" x="259.574553" y="386.198125" style="stroke: #000000; stroke-width: 0.8"/>
      </g>
     </g>
     <g id="text_2">
      <!-- 0.1 -->
      <g transform="translate(251.622991 400.796562) scale(0.1 -0.1)">
       <defs>
        <path id="DejaVuSans-31" d="M 794 531 
L 1825 531 
L 1825 4091 
L 703 3866 
L 703 4441 
L 1819 4666 
L 2450 4666 
L 2450 531 
L 3481 531 
L 3481 0 
L 794 0 
L 794 531 
z
" transform="scale(0.015625)"/>
       </defs>
       <use xlink:href="#DejaVuSans-30"/>
       <use xlink:href="#DejaVuSans-2e" transform="translate(63.623047 0)"/>
       <use xlink:href="#DejaVuSans-31" transform="translate(95.410156 0)"/>
      </g>
     </g>
    </g>
    <g id="xtick_3">
     <g id="line2d_3">
      <g>
       <use xlink:href="#mad2534defa" x="342.711919" y="386.198125" style="stroke: #000000; stroke-width: 0.8"/>
      </g>
     </g>
     <g id="text_3">
      <!-- 0.2 -->
      <g transform="translate(334.760357 400.796562) scale(0.1 -0.1)">
       <defs>
        <path id="DejaVuSans-32" d="M 1228 531 
L 3431 531 
L 3431 0 
L 469 0 
L 469 531 
Q 828 903 1448 1529 
Q 2069 2156 2228 2338 
Q 2531 2678 2651 2914 
Q 2772 3150 2772 3378 
Q 2772 3750 2511 3984 
Q 2250 4219 1831 4219 
Q 1534 4219 1204 4116 
Q 875 4013 500 3803 
L 500 4441 
Q 881 4594 1212 4672 
Q 1544 4750 1819 4750 
Q 2544 4750 2975 4387 
Q 3406 4025 3406 3419 
Q 3406 3131 3298 2873 
Q 3191 2616 2906 2266 
Q 2828 2175 2409 1742 
Q 1991 1309 1228 531 
z
" transform="scale(0.015625)"/>
       </defs>
       <use xlink:href="#DejaVuSans-30"/>
       <use xlink:href="#DejaVuSans-2e" transform="translate(63.623047 0)"/>
       <use xlink:href="#DejaVuSans-32" transform="translate(95.410156 0)"/>
      </g>
     </g>
    </g>
    <g id="xtick_4">
     <g id="line2d_4">
      <g>
       <use xlink:href="#mad2534defa" x="425.849285" y="386.198125" style="stroke: #000000; stroke-width: 0.8"/>
      </g>
     </g>
     <g id="text_4">
      <!-- 0.3 -->
      <g transform="translate(417.897723 400.796562) scale(0.1 -0.1)">
       <defs>
        <path id="DejaVuSans-33" d="M 2597 2516 
Q 3050 2419 3304 2112 
Q 3559 1806 3559 1356 
Q 3559 666 3084 287 
Q 2609 -91 1734 -91 
Q 1441 -91 1130 -33 
Q 819 25 488 141 
L 488 750 
Q 750 597 1062 519 
Q 1375 441 1716 441 
Q 2309 441 2620 675 
Q 2931 909 2931 1356 
Q 2931 1769 2642 2001 
Q 2353 2234 1838 2234 
L 1294 2234 
L 1294 2753 
L 1863 2753 
Q 2328 2753 2575 2939 
Q 2822 3125 2822 3475 
Q 2822 3834 2567 4026 
Q 2313 4219 1838 4219 
Q 1578 4219 1281 4162 
Q 984 4106 628 3988 
L 628 4550 
Q 988 4650 1302 4700 
Q 1616 4750 1894 4750 
Q 2613 4750 3031 4423 
Q 3450 4097 3450 3541 
Q 3450 3153 3228 2886 
Q 3006 2619 2597 2516 
z
" transform="scale(0.015625)"/>
       </defs>
       <use xlink:href="#DejaVuSans-30"/>
       <use xlink:href="#DejaVuSans-2e" transform="translate(63.623047 0)"/>
       <use xlink:href="#DejaVuSans-33" transform="translate(95.410156 0)"/>
      </g>
     </g>
    </g>
    <g id="xtick_5">
     <g id="line2d_5">
      <g>
       <use xlink:href="#mad2534defa" x="508.986651" y="386.198125" style="stroke: #000000; stroke-width: 0.8"/>
      </g>
     </g>
     <g id="text_5">
      <!-- 0.4 -->
      <g transform="translate(501.035088 400.796562) scale(0.1 -0.1)">
       <defs>
        <path id="DejaVuSans-34" d="M 2419 4116 
L 825 1625 
L 2419 1625 
L 2419 4116 
z
M 2253 4666 
L 3047 4666 
L 3047 1625 
L 3713 1625 
L 3713 1100 
L 3047 1100 
L 3047 0 
L 2419 0 
L 2419 1100 
L 313 1100 
L 313 1709 
L 2253 4666 
z
" transform="scale(0.015625)"/>
       </defs>
       <use xlink:href="#DejaVuSans-30"/>
       <use xlink:href="#DejaVuSans-2e" transform="translate(63.623047 0)"/>
       <use xlink:href="#DejaVuSans-34" transform="translate(95.410156 0)"/>
      </g>
     </g>
    </g>
    <g id="text_6">
     <!-- Importance -->
     <g transform="translate(334.958437 415.994375) scale(0.12 -0.12)">
      <defs>
       <path id="DejaVuSans-49" d="M 628 4666 
L 1259 4666 
L 1259 0 
L 628 0 
L 628 4666 
z
" transform="scale(0.015625)"/>
       <path id="DejaVuSans-6d" d="M 3328 2828 
Q 3544 3216 3844 3400 
Q 4144 3584 4550 3584 
Q 5097 3584 5394 3201 
Q 5691 2819 5691 2113 
L 5691 0 
L 5113 0 
L 5113 2094 
Q 5113 2597 4934 2840 
Q 4756 3084 4391 3084 
Q 3944 3084 3684 2787 
Q 3425 2491 3425 1978 
L 3425 0 
L 2847 0 
L 2847 2094 
Q 2847 2600 2669 2842 
Q 2491 3084 2119 3084 
Q 1678 3084 1418 2786 
Q 1159 2488 1159 1978 
L 1159 0 
L 581 0 
L 581 3500 
L 1159 3500 
L 1159 2956 
Q 1356 3278 1631 3431 
Q 1906 3584 2284 3584 
Q 2666 3584 2933 3390 
Q 3200 3197 3328 2828 
z
" transform="scale(0.015625)"/>
       <path id="DejaVuSans-70" d="M 1159 525 
L 1159 -1331 
L 581 -1331 
L 581 3500 
L 1159 3500 
L 1159 2969 
Q 1341 3281 1617 3432 
Q 1894 3584 2278 3584 
Q 2916 3584 3314 3078 
Q 3713 2572 3713 1747 
Q 3713 922 3314 415 
Q 2916 -91 2278 -91 
Q 1894 -91 1617 61 
Q 1341 213 1159 525 
z
M 3116 1747 
Q 3116 2381 2855 2742 
Q 2594 3103 2138 3103 
Q 1681 3103 1420 2742 
Q 1159 2381 1159 1747 
Q 1159 1113 1420 752 
Q 1681 391 2138 391 
Q 2594 391 2855 752 
Q 3116 1113 3116 1747 
z
" transform="scale(0.015625)"/>
       <path id="DejaVuSans-6f" d="M 1959 3097 
Q 1497 3097 1228 2736 
Q 959 2375 959 1747 
Q 959 1119 1226 758 
Q 1494 397 1959 397 
Q 2419 397 2687 759 
Q 2956 1122 2956 1747 
Q 2956 2369 2687 2733 
Q 2419 3097 1959 3097 
z
M 1959 3584 
Q 2709 3584 3137 3096 
Q 3566 2609 3566 1747 
Q 3566 888 3137 398 
Q 2709 -91 1959 -91 
Q 1206 -91 779 398 
Q 353 888 353 1747 
Q 353 2609 779 3096 
Q 1206 3584 1959 3584 
z
" transform="scale(0.015625)"/>
       <path id="DejaVuSans-72" d="M 2631 2963 
Q 2534 3019 2420 3045 
Q 2306 3072 2169 3072 
Q 1681 3072 1420 2755 
Q 1159 2438 1159 1844 
L 1159 0 
L 581 0 
L 581 3500 
L 1159 3500 
L 1159 2956 
Q 1341 3275 1631 3429 
Q 1922 3584 2338 3584 
Q 2397 3584 2469 3576 
Q 2541 3569 2628 3553 
L 2631 2963 
z
" transform="scale(0.015625)"/>
       <path id="DejaVuSans-74" d="M 1172 4494 
L 1172 3500 
L 2356 3500 
L 2356 3053 
L 1172 3053 
L 1172 1153 
Q 1172 725 1289 603 
Q 1406 481 1766 481 
L 2356 481 
L 2356 0 
L 1766 0 
Q 1100 0 847 248 
Q 594 497 594 1153 
L 594 3053 
L 172 3053 
L 172 3500 
L 594 3500 
L 594 4494 
L 1172 4494 
z
" transform="scale(0.015625)"/>
       <path id="DejaVuSans-61" d="M 2194 1759 
Q 1497 1759 1228 1600 
Q 959 1441 959 1056 
Q 959 750 1161 570 
Q 1363 391 1709 391 
Q 2188 391 2477 730 
Q 2766 1069 2766 1631 
L 2766 1759 
L 2194 1759 
z
M 3341 1997 
L 3341 0 
L 2766 0 
L 2766 531 
Q 2569 213 2275 61 
Q 1981 -91 1556 -91 
Q 1019 -91 701 211 
Q 384 513 384 1019 
Q 384 1609 779 1909 
Q 1175 2209 1959 2209 
L 2766 2209 
L 2766 2266 
Q 2766 2663 2505 2880 
Q 2244 3097 1772 3097 
Q 1472 3097 1187 3025 
Q 903 2953 641 2809 
L 641 3341 
Q 956 3463 1253 3523 
Q 1550 3584 1831 3584 
Q 2591 3584 2966 3190 
Q 3341 2797 3341 1997 
z
" transform="scale(0.015625)"/>
       <path id="DejaVuSans-6e" d="M 3513 2113 
L 3513 0 
L 2938 0 
L 2938 2094 
Q 2938 2591 2744 2837 
Q 2550 3084 2163 3084 
Q 1697 3084 1428 2787 
Q 1159 2491 1159 1978 
L 1159 0 
L 581 0 
L 581 3500 
L 1159 3500 
L 1159 2956 
Q 1366 3272 1645 3428 
Q 1925 3584 2291 3584 
Q 2894 3584 3203 3211 
Q 3513 2838 3513 2113 
z
" transform="scale(0.015625)"/>
       <path id="DejaVuSans-63" d="M 3122 3366 
L 3122 2828 
Q 2878 2963 2633 3030 
Q 2388 3097 2138 3097 
Q 1578 3097 1268 2742 
Q 959 2388 959 1747 
Q 959 1106 1268 751 
Q 1578 397 2138 397 
Q 2388 397 2633 464 
Q 2878 531 3122 666 
L 3122 134 
Q 2881 22 2623 -34 
Q 2366 -91 2075 -91 
Q 1284 -91 818 406 
Q 353 903 353 1747 
Q 353 2603 823 3093 
Q 1294 3584 2113 3584 
Q 2378 3584 2631 3529 
Q 2884 3475 3122 3366 
z
" transform="scale(0.015625)"/>
       <path id="DejaVuSans-65" d="M 3597 1894 
L 3597 1613 
L 953 1613 
Q 991 1019 1311 708 
Q 1631 397 2203 397 
Q 2534 397 2845 478 
Q 3156 559 3463 722 
L 3463 178 
Q 3153 47 2828 -22 
Q 2503 -91 2169 -91 
Q 1331 -91 842 396 
Q 353 884 353 1716 
Q 353 2575 817 3079 
Q 1281 3584 2069 3584 
Q 2775 3584 3186 3129 
Q 3597 2675 3597 1894 
z
M 3022 2063 
Q 3016 2534 2758 2815 
Q 2500 3097 2075 3097 
Q 1594 3097 1305 2825 
Q 1016 2553 972 2059 
L 3022 2063 
z
" transform="scale(0.015625)"/>
      </defs>
      <use xlink:href="#DejaVuSans-49"/>
      <use xlink:href="#DejaVuSans-6d" transform="translate(29.492188 0)"/>
      <use xlink:href="#DejaVuSans-70" transform="translate(126.904297 0)"/>
      <use xlink:href="#DejaVuSans-6f" transform="translate(190.380859 0)"/>
      <use xlink:href="#DejaVuSans-72" transform="translate(251.5625 0)"/>
      <use xlink:href="#DejaVuSans-74" transform="translate(292.675781 0)"/>
      <use xlink:href="#DejaVuSans-61" transform="translate(331.884766 0)"/>
      <use xlink:href="#DejaVuSans-6e" transform="translate(393.164062 0)"/>
      <use xlink:href="#DejaVuSans-63" transform="translate(456.542969 0)"/>
      <use xlink:href="#DejaVuSans-65" transform="translate(511.523438 0)"/>
     </g>
    </g>
   </g>
   <g id="matplotlib.axis_2">
    <g id="ytick_1">
     <g id="line2d_6">
      <defs>
       <path id="m1f93be09d7" d="M 0 0 
L -3.5 0 
" style="stroke: #000000; stroke-width: 0.8"/>
      </defs>
      <g>
       <use xlink:href="#m1f93be09d7" x="176.437187" y="365.962036" style="stroke: #000000; stroke-width: 0.8"/>
      </g>
     </g>
     <g id="text_7">
      <!-- hour -->
      <g transform="translate(146.5325 369.761254) scale(0.1 -0.1)">
       <defs>
        <path id="DejaVuSans-68" d="M 3513 2113 
L 3513 0 
L 2938 0 
L 2938 2094 
Q 2938 2591 2744 2837 
Q 2550 3084 2163 3084 
Q 1697 3084 1428 2787 
Q 1159 2491 1159 1978 
L 1159 0 
L 581 0 
L 581 4863 
L 1159 4863 
L 1159 2956 
Q 1366 3272 1645 3428 
Q 1925 3584 2291 3584 
Q 2894 3584 3203 3211 
Q 3513 2838 3513 2113 
z
" transform="scale(0.015625)"/>
        <path id="DejaVuSans-75" d="M 544 1381 
L 544 3500 
L 1119 3500 
L 1119 1403 
Q 1119 906 1312 657 
Q 1506 409 1894 409 
Q 2359 409 2629 706 
Q 2900 1003 2900 1516 
L 2900 3500 
L 3475 3500 
L 3475 0 
L 2900 0 
L 2900 538 
Q 2691 219 2414 64 
Q 2138 -91 1772 -91 
Q 1169 -91 856 284 
Q 544 659 544 1381 
z
M 1991 3584 
L 1991 3584 
z
" transform="scale(0.015625)"/>
       </defs>
       <use xlink:href="#DejaVuSans-68"/>
       <use xlink:href="#DejaVuSans-6f" transform="translate(63.378906 0)"/>
       <use xlink:href="#DejaVuSans-75" transform="translate(124.560547 0)"/>
       <use xlink:href="#DejaVuSans-72" transform="translate(187.939453 0)"/>
      </g>
     </g>
    </g>
    <g id="ytick_2">
     <g id="line2d_7">
      <g>
       <use xlink:href="#m1f93be09d7" x="176.437187" y="356.721812" style="stroke: #000000; stroke-width: 0.8"/>
      </g>
     </g>
     <g id="text_8">
      <!-- weekday_Sunday -->
      <g transform="translate(82.348125 360.521031) scale(0.1 -0.1)">
       <defs>
        <path id="DejaVuSans-77" d="M 269 3500 
L 844 3500 
L 1563 769 
L 2278 3500 
L 2956 3500 
L 3675 769 
L 4391 3500 
L 4966 3500 
L 4050 0 
L 3372 0 
L 2619 2869 
L 1863 0 
L 1184 0 
L 269 3500 
z
" transform="scale(0.015625)"/>
        <path id="DejaVuSans-6b" d="M 581 4863 
L 1159 4863 
L 1159 1991 
L 2875 3500 
L 3609 3500 
L 1753 1863 
L 3688 0 
L 2938 0 
L 1159 1709 
L 1159 0 
L 581 0 
L 581 4863 
z
" transform="scale(0.015625)"/>
        <path id="DejaVuSans-64" d="M 2906 2969 
L 2906 4863 
L 3481 4863 
L 3481 0 
L 2906 0 
L 2906 525 
Q 2725 213 2448 61 
Q 2172 -91 1784 -91 
Q 1150 -91 751 415 
Q 353 922 353 1747 
Q 353 2572 751 3078 
Q 1150 3584 1784 3584 
Q 2172 3584 2448 3432 
Q 2725 3281 2906 2969 
z
M 947 1747 
Q 947 1113 1208 752 
Q 1469 391 1925 391 
Q 2381 391 2643 752 
Q 2906 1113 2906 1747 
Q 2906 2381 2643 2742 
Q 2381 3103 1925 3103 
Q 1469 3103 1208 2742 
Q 947 2381 947 1747 
z
" transform="scale(0.015625)"/>
        <path id="DejaVuSans-79" d="M 2059 -325 
Q 1816 -950 1584 -1140 
Q 1353 -1331 966 -1331 
L 506 -1331 
L 506 -850 
L 844 -850 
Q 1081 -850 1212 -737 
Q 1344 -625 1503 -206 
L 1606 56 
L 191 3500 
L 800 3500 
L 1894 763 
L 2988 3500 
L 3597 3500 
L 2059 -325 
z
" transform="scale(0.015625)"/>
        <path id="DejaVuSans-5f" d="M 3263 -1063 
L 3263 -1509 
L -63 -1509 
L -63 -1063 
L 3263 -1063 
z
" transform="scale(0.015625)"/>
        <path id="DejaVuSans-53" d="M 3425 4513 
L 3425 3897 
Q 3066 4069 2747 4153 
Q 2428 4238 2131 4238 
Q 1616 4238 1336 4038 
Q 1056 3838 1056 3469 
Q 1056 3159 1242 3001 
Q 1428 2844 1947 2747 
L 2328 2669 
Q 3034 2534 3370 2195 
Q 3706 1856 3706 1288 
Q 3706 609 3251 259 
Q 2797 -91 1919 -91 
Q 1588 -91 1214 -16 
Q 841 59 441 206 
L 441 856 
Q 825 641 1194 531 
Q 1563 422 1919 422 
Q 2459 422 2753 634 
Q 3047 847 3047 1241 
Q 3047 1584 2836 1778 
Q 2625 1972 2144 2069 
L 1759 2144 
Q 1053 2284 737 2584 
Q 422 2884 422 3419 
Q 422 4038 858 4394 
Q 1294 4750 2059 4750 
Q 2388 4750 2728 4690 
Q 3069 4631 3425 4513 
z
" transform="scale(0.015625)"/>
       </defs>
       <use xlink:href="#DejaVuSans-77"/>
       <use xlink:href="#DejaVuSans-65" transform="translate(81.787109 0)"/>
       <use xlink:href="#DejaVuSans-65" transform="translate(143.310547 0)"/>
       <use xlink:href="#DejaVuSans-6b" transform="translate(204.833984 0)"/>
       <use xlink:href="#DejaVuSans-64" transform="translate(262.744141 0)"/>
       <use xlink:href="#DejaVuSans-61" transform="translate(326.220703 0)"/>
       <use xlink:href="#DejaVuSans-79" transform="translate(387.5 0)"/>
       <use xlink:href="#DejaVuSans-5f" transform="translate(446.679688 0)"/>
       <use xlink:href="#DejaVuSans-53" transform="translate(496.679688 0)"/>
       <use xlink:href="#DejaVuSans-75" transform="translate(560.15625 0)"/>
       <use xlink:href="#DejaVuSans-6e" transform="translate(623.535156 0)"/>
       <use xlink:href="#DejaVuSans-64" transform="translate(686.914062 0)"/>
       <use xlink:href="#DejaVuSans-61" transform="translate(750.390625 0)"/>
       <use xlink:href="#DejaVuSans-79" transform="translate(811.669922 0)"/>
      </g>
     </g>
    </g>
    <g id="ytick_3">
     <g id="line2d_8">
      <g>
       <use xlink:href="#m1f93be09d7" x="176.437187" y="347.481589" style="stroke: #000000; stroke-width: 0.8"/>
      </g>
     </g>
     <g id="text_9">
      <!-- weekday_Saturday -->
      <g transform="translate(74.70125 351.280807) scale(0.1 -0.1)">
       <use xlink:href="#DejaVuSans-77"/>
       <use xlink:href="#DejaVuSans-65" transform="translate(81.787109 0)"/>
       <use xlink:href="#DejaVuSans-65" transform="translate(143.310547 0)"/>
       <use xlink:href="#DejaVuSans-6b" transform="translate(204.833984 0)"/>
       <use xlink:href="#DejaVuSans-64" transform="translate(262.744141 0)"/>
       <use xlink:href="#DejaVuSans-61" transform="translate(326.220703 0)"/>
       <use xlink:href="#DejaVuSans-79" transform="translate(387.5 0)"/>
       <use xlink:href="#DejaVuSans-5f" transform="translate(446.679688 0)"/>
       <use xlink:href="#DejaVuSans-53" transform="translate(496.679688 0)"/>
       <use xlink:href="#DejaVuSans-61" transform="translate(560.15625 0)"/>
       <use xlink:href="#DejaVuSans-74" transform="translate(621.435547 0)"/>
       <use xlink:href="#DejaVuSans-75" transform="translate(660.644531 0)"/>
       <use xlink:href="#DejaVuSans-72" transform="translate(724.023438 0)"/>
       <use xlink:href="#DejaVuSans-64" transform="translate(763.386719 0)"/>
       <use xlink:href="#DejaVuSans-61" transform="translate(826.863281 0)"/>
       <use xlink:href="#DejaVuSans-79" transform="translate(888.142578 0)"/>
      </g>
     </g>
    </g>
    <g id="ytick_4">
     <g id="line2d_9">
      <g>
       <use xlink:href="#m1f93be09d7" x="176.437187" y="338.241365" style="stroke: #000000; stroke-width: 0.8"/>
      </g>
     </g>
     <g id="text_10">
      <!-- weekday_Friday -->
      <g transform="translate(89.455937 342.040584) scale(0.1 -0.1)">
       <defs>
        <path id="DejaVuSans-46" d="M 628 4666 
L 3309 4666 
L 3309 4134 
L 1259 4134 
L 1259 2759 
L 3109 2759 
L 3109 2228 
L 1259 2228 
L 1259 0 
L 628 0 
L 628 4666 
z
" transform="scale(0.015625)"/>
        <path id="DejaVuSans-69" d="M 603 3500 
L 1178 3500 
L 1178 0 
L 603 0 
L 603 3500 
z
M 603 4863 
L 1178 4863 
L 1178 4134 
L 603 4134 
L 603 4863 
z
" transform="scale(0.015625)"/>
       </defs>
       <use xlink:href="#DejaVuSans-77"/>
       <use xlink:href="#DejaVuSans-65" transform="translate(81.787109 0)"/>
       <use xlink:href="#DejaVuSans-65" transform="translate(143.310547 0)"/>
       <use xlink:href="#DejaVuSans-6b" transform="translate(204.833984 0)"/>
       <use xlink:href="#DejaVuSans-64" transform="translate(262.744141 0)"/>
       <use xlink:href="#DejaVuSans-61" transform="translate(326.220703 0)"/>
       <use xlink:href="#DejaVuSans-79" transform="translate(387.5 0)"/>
       <use xlink:href="#DejaVuSans-5f" transform="translate(446.679688 0)"/>
       <use xlink:href="#DejaVuSans-46" transform="translate(496.679688 0)"/>
       <use xlink:href="#DejaVuSans-72" transform="translate(546.949219 0)"/>
       <use xlink:href="#DejaVuSans-69" transform="translate(588.0625 0)"/>
       <use xlink:href="#DejaVuSans-64" transform="translate(615.845703 0)"/>
       <use xlink:href="#DejaVuSans-61" transform="translate(679.322266 0)"/>
       <use xlink:href="#DejaVuSans-79" transform="translate(740.601562 0)"/>
      </g>
     </g>
    </g>
    <g id="ytick_5">
     <g id="line2d_10">
      <g>
       <use xlink:href="#m1f93be09d7" x="176.437187" y="329.001142" style="stroke: #000000; stroke-width: 0.8"/>
      </g>
     </g>
     <g id="text_11">
      <!-- weekday_Monday -->
      <g transform="translate(80.287187 332.800361) scale(0.1 -0.1)">
       <defs>
        <path id="DejaVuSans-4d" d="M 628 4666 
L 1569 4666 
L 2759 1491 
L 3956 4666 
L 4897 4666 
L 4897 0 
L 4281 0 
L 4281 4097 
L 3078 897 
L 2444 897 
L 1241 4097 
L 1241 0 
L 628 0 
L 628 4666 
z
" transform="scale(0.015625)"/>
       </defs>
       <use xlink:href="#DejaVuSans-77"/>
       <use xlink:href="#DejaVuSans-65" transform="translate(81.787109 0)"/>
       <use xlink:href="#DejaVuSans-65" transform="translate(143.310547 0)"/>
       <use xlink:href="#DejaVuSans-6b" transform="translate(204.833984 0)"/>
       <use xlink:href="#DejaVuSans-64" transform="translate(262.744141 0)"/>
       <use xlink:href="#DejaVuSans-61" transform="translate(326.220703 0)"/>
       <use xlink:href="#DejaVuSans-79" transform="translate(387.5 0)"/>
       <use xlink:href="#DejaVuSans-5f" transform="translate(446.679688 0)"/>
       <use xlink:href="#DejaVuSans-4d" transform="translate(496.679688 0)"/>
       <use xlink:href="#DejaVuSans-6f" transform="translate(582.958984 0)"/>
       <use xlink:href="#DejaVuSans-6e" transform="translate(644.140625 0)"/>
       <use xlink:href="#DejaVuSans-64" transform="translate(707.519531 0)"/>
       <use xlink:href="#DejaVuSans-61" transform="translate(770.996094 0)"/>
       <use xlink:href="#DejaVuSans-79" transform="translate(832.275391 0)"/>
      </g>
     </g>
    </g>
    <g id="ytick_6">
     <g id="line2d_11">
      <g>
       <use xlink:href="#m1f93be09d7" x="176.437187" y="319.760918" style="stroke: #000000; stroke-width: 0.8"/>
      </g>
     </g>
     <g id="text_12">
      <!-- month_December -->
      <g transform="translate(80.124687 323.560137) scale(0.1 -0.1)">
       <defs>
        <path id="DejaVuSans-44" d="M 1259 4147 
L 1259 519 
L 2022 519 
Q 2988 519 3436 956 
Q 3884 1394 3884 2338 
Q 3884 3275 3436 3711 
Q 2988 4147 2022 4147 
L 1259 4147 
z
M 628 4666 
L 1925 4666 
Q 3281 4666 3915 4102 
Q 4550 3538 4550 2338 
Q 4550 1131 3912 565 
Q 3275 0 1925 0 
L 628 0 
L 628 4666 
z
" transform="scale(0.015625)"/>
        <path id="DejaVuSans-62" d="M 3116 1747 
Q 3116 2381 2855 2742 
Q 2594 3103 2138 3103 
Q 1681 3103 1420 2742 
Q 1159 2381 1159 1747 
Q 1159 1113 1420 752 
Q 1681 391 2138 391 
Q 2594 391 2855 752 
Q 3116 1113 3116 1747 
z
M 1159 2969 
Q 1341 3281 1617 3432 
Q 1894 3584 2278 3584 
Q 2916 3584 3314 3078 
Q 3713 2572 3713 1747 
Q 3713 922 3314 415 
Q 2916 -91 2278 -91 
Q 1894 -91 1617 61 
Q 1341 213 1159 525 
L 1159 0 
L 581 0 
L 581 4863 
L 1159 4863 
L 1159 2969 
z
" transform="scale(0.015625)"/>
       </defs>
       <use xlink:href="#DejaVuSans-6d"/>
       <use xlink:href="#DejaVuSans-6f" transform="translate(97.412109 0)"/>
       <use xlink:href="#DejaVuSans-6e" transform="translate(158.59375 0)"/>
       <use xlink:href="#DejaVuSans-74" transform="translate(221.972656 0)"/>
       <use xlink:href="#DejaVuSans-68" transform="translate(261.181641 0)"/>
       <use xlink:href="#DejaVuSans-5f" transform="translate(324.560547 0)"/>
       <use xlink:href="#DejaVuSans-44" transform="translate(374.560547 0)"/>
       <use xlink:href="#DejaVuSans-65" transform="translate(451.5625 0)"/>
       <use xlink:href="#DejaVuSans-63" transform="translate(513.085938 0)"/>
       <use xlink:href="#DejaVuSans-65" transform="translate(568.066406 0)"/>
       <use xlink:href="#DejaVuSans-6d" transform="translate(629.589844 0)"/>
       <use xlink:href="#DejaVuSans-62" transform="translate(727.001953 0)"/>
       <use xlink:href="#DejaVuSans-65" transform="translate(790.478516 0)"/>
       <use xlink:href="#DejaVuSans-72" transform="translate(852.001953 0)"/>
      </g>
     </g>
    </g>
    <g id="ytick_7">
     <g id="line2d_12">
      <g>
       <use xlink:href="#m1f93be09d7" x="176.437187" y="310.520695" style="stroke: #000000; stroke-width: 0.8"/>
      </g>
     </g>
     <g id="text_13">
      <!-- month_July -->
      <g transform="translate(113.998125 314.319914) scale(0.1 -0.1)">
       <defs>
        <path id="DejaVuSans-4a" d="M 628 4666 
L 1259 4666 
L 1259 325 
Q 1259 -519 939 -900 
Q 619 -1281 -91 -1281 
L -331 -1281 
L -331 -750 
L -134 -750 
Q 284 -750 456 -515 
Q 628 -281 628 325 
L 628 4666 
z
" transform="scale(0.015625)"/>
        <path id="DejaVuSans-6c" d="M 603 4863 
L 1178 4863 
L 1178 0 
L 603 0 
L 603 4863 
z
" transform="scale(0.015625)"/>
       </defs>
       <use xlink:href="#DejaVuSans-6d"/>
       <use xlink:href="#DejaVuSans-6f" transform="translate(97.412109 0)"/>
       <use xlink:href="#DejaVuSans-6e" transform="translate(158.59375 0)"/>
       <use xlink:href="#DejaVuSans-74" transform="translate(221.972656 0)"/>
       <use xlink:href="#DejaVuSans-68" transform="translate(261.181641 0)"/>
       <use xlink:href="#DejaVuSans-5f" transform="translate(324.560547 0)"/>
       <use xlink:href="#DejaVuSans-4a" transform="translate(374.560547 0)"/>
       <use xlink:href="#DejaVuSans-75" transform="translate(404.052734 0)"/>
       <use xlink:href="#DejaVuSans-6c" transform="translate(467.431641 0)"/>
       <use xlink:href="#DejaVuSans-79" transform="translate(495.214844 0)"/>
      </g>
     </g>
    </g>
    <g id="ytick_8">
     <g id="line2d_13">
      <g>
       <use xlink:href="#m1f93be09d7" x="176.437187" y="301.280471" style="stroke: #000000; stroke-width: 0.8"/>
      </g>
     </g>
     <g id="text_14">
      <!-- weather_main_Fog -->
      <g transform="translate(75.615312 305.07969) scale(0.1 -0.1)">
       <defs>
        <path id="DejaVuSans-67" d="M 2906 1791 
Q 2906 2416 2648 2759 
Q 2391 3103 1925 3103 
Q 1463 3103 1205 2759 
Q 947 2416 947 1791 
Q 947 1169 1205 825 
Q 1463 481 1925 481 
Q 2391 481 2648 825 
Q 2906 1169 2906 1791 
z
M 3481 434 
Q 3481 -459 3084 -895 
Q 2688 -1331 1869 -1331 
Q 1566 -1331 1297 -1286 
Q 1028 -1241 775 -1147 
L 775 -588 
Q 1028 -725 1275 -790 
Q 1522 -856 1778 -856 
Q 2344 -856 2625 -561 
Q 2906 -266 2906 331 
L 2906 616 
Q 2728 306 2450 153 
Q 2172 0 1784 0 
Q 1141 0 747 490 
Q 353 981 353 1791 
Q 353 2603 747 3093 
Q 1141 3584 1784 3584 
Q 2172 3584 2450 3431 
Q 2728 3278 2906 2969 
L 2906 3500 
L 3481 3500 
L 3481 434 
z
" transform="scale(0.015625)"/>
       </defs>
       <use xlink:href="#DejaVuSans-77"/>
       <use xlink:href="#DejaVuSans-65" transform="translate(81.787109 0)"/>
       <use xlink:href="#DejaVuSans-61" transform="translate(143.310547 0)"/>
       <use xlink:href="#DejaVuSans-74" transform="translate(204.589844 0)"/>
       <use xlink:href="#DejaVuSans-68" transform="translate(243.798828 0)"/>
       <use xlink:href="#DejaVuSans-65" transform="translate(307.177734 0)"/>
       <use xlink:href="#DejaVuSans-72" transform="translate(368.701172 0)"/>
       <use xlink:href="#DejaVuSans-5f" transform="translate(409.814453 0)"/>
       <use xlink:href="#DejaVuSans-6d" transform="translate(459.814453 0)"/>
       <use xlink:href="#DejaVuSans-61" transform="translate(557.226562 0)"/>
       <use xlink:href="#DejaVuSans-69" transform="translate(618.505859 0)"/>
       <use xlink:href="#DejaVuSans-6e" transform="translate(646.289062 0)"/>
       <use xlink:href="#DejaVuSans-5f" transform="translate(709.667969 0)"/>
       <use xlink:href="#DejaVuSans-46" transform="translate(759.667969 0)"/>
       <use xlink:href="#DejaVuSans-6f" transform="translate(813.5625 0)"/>
       <use xlink:href="#DejaVuSans-67" transform="translate(874.744141 0)"/>
      </g>
     </g>
    </g>
    <g id="ytick_9">
     <g id="line2d_14">
      <g>
       <use xlink:href="#m1f93be09d7" x="176.437187" y="292.040248" style="stroke: #000000; stroke-width: 0.8"/>
      </g>
     </g>
     <g id="text_15">
      <!-- month_November -->
      <g transform="translate(79.9575 295.839467) scale(0.1 -0.1)">
       <defs>
        <path id="DejaVuSans-4e" d="M 628 4666 
L 1478 4666 
L 3547 763 
L 3547 4666 
L 4159 4666 
L 4159 0 
L 3309 0 
L 1241 3903 
L 1241 0 
L 628 0 
L 628 4666 
z
" transform="scale(0.015625)"/>
        <path id="DejaVuSans-76" d="M 191 3500 
L 800 3500 
L 1894 563 
L 2988 3500 
L 3597 3500 
L 2284 0 
L 1503 0 
L 191 3500 
z
" transform="scale(0.015625)"/>
       </defs>
       <use xlink:href="#DejaVuSans-6d"/>
       <use xlink:href="#DejaVuSans-6f" transform="translate(97.412109 0)"/>
       <use xlink:href="#DejaVuSans-6e" transform="translate(158.59375 0)"/>
       <use xlink:href="#DejaVuSans-74" transform="translate(221.972656 0)"/>
       <use xlink:href="#DejaVuSans-68" transform="translate(261.181641 0)"/>
       <use xlink:href="#DejaVuSans-5f" transform="translate(324.560547 0)"/>
       <use xlink:href="#DejaVuSans-4e" transform="translate(374.560547 0)"/>
       <use xlink:href="#DejaVuSans-6f" transform="translate(449.365234 0)"/>
       <use xlink:href="#DejaVuSans-76" transform="translate(510.546875 0)"/>
       <use xlink:href="#DejaVuSans-65" transform="translate(569.726562 0)"/>
       <use xlink:href="#DejaVuSans-6d" transform="translate(631.25 0)"/>
       <use xlink:href="#DejaVuSans-62" transform="translate(728.662109 0)"/>
       <use xlink:href="#DejaVuSans-65" transform="translate(792.138672 0)"/>
       <use xlink:href="#DejaVuSans-72" transform="translate(853.662109 0)"/>
      </g>
     </g>
    </g>
    <g id="ytick_10">
     <g id="line2d_15">
      <g>
       <use xlink:href="#m1f93be09d7" x="176.437187" y="282.800024" style="stroke: #000000; stroke-width: 0.8"/>
      </g>
     </g>
     <g id="text_16">
      <!-- weekday_Thursday -->
      <g transform="translate(73.268437 286.599243) scale(0.1 -0.1)">
       <defs>
        <path id="DejaVuSans-54" d="M -19 4666 
L 3928 4666 
L 3928 4134 
L 2272 4134 
L 2272 0 
L 1638 0 
L 1638 4134 
L -19 4134 
L -19 4666 
z
" transform="scale(0.015625)"/>
        <path id="DejaVuSans-73" d="M 2834 3397 
L 2834 2853 
Q 2591 2978 2328 3040 
Q 2066 3103 1784 3103 
Q 1356 3103 1142 2972 
Q 928 2841 928 2578 
Q 928 2378 1081 2264 
Q 1234 2150 1697 2047 
L 1894 2003 
Q 2506 1872 2764 1633 
Q 3022 1394 3022 966 
Q 3022 478 2636 193 
Q 2250 -91 1575 -91 
Q 1294 -91 989 -36 
Q 684 19 347 128 
L 347 722 
Q 666 556 975 473 
Q 1284 391 1588 391 
Q 1994 391 2212 530 
Q 2431 669 2431 922 
Q 2431 1156 2273 1281 
Q 2116 1406 1581 1522 
L 1381 1569 
Q 847 1681 609 1914 
Q 372 2147 372 2553 
Q 372 3047 722 3315 
Q 1072 3584 1716 3584 
Q 2034 3584 2315 3537 
Q 2597 3491 2834 3397 
z
" transform="scale(0.015625)"/>
       </defs>
       <use xlink:href="#DejaVuSans-77"/>
       <use xlink:href="#DejaVuSans-65" transform="translate(81.787109 0)"/>
       <use xlink:href="#DejaVuSans-65" transform="translate(143.310547 0)"/>
       <use xlink:href="#DejaVuSans-6b" transform="translate(204.833984 0)"/>
       <use xlink:href="#DejaVuSans-64" transform="translate(262.744141 0)"/>
       <use xlink:href="#DejaVuSans-61" transform="translate(326.220703 0)"/>
       <use xlink:href="#DejaVuSans-79" transform="translate(387.5 0)"/>
       <use xlink:href="#DejaVuSans-5f" transform="translate(446.679688 0)"/>
       <use xlink:href="#DejaVuSans-54" transform="translate(496.679688 0)"/>
       <use xlink:href="#DejaVuSans-68" transform="translate(557.763672 0)"/>
       <use xlink:href="#DejaVuSans-75" transform="translate(621.142578 0)"/>
       <use xlink:href="#DejaVuSans-72" transform="translate(684.521484 0)"/>
       <use xlink:href="#DejaVuSans-73" transform="translate(725.634766 0)"/>
       <use xlink:href="#DejaVuSans-64" transform="translate(777.734375 0)"/>
       <use xlink:href="#DejaVuSans-61" transform="translate(841.210938 0)"/>
       <use xlink:href="#DejaVuSans-79" transform="translate(902.490234 0)"/>
      </g>
     </g>
    </g>
    <g id="ytick_11">
     <g id="line2d_16">
      <g>
       <use xlink:href="#m1f93be09d7" x="176.437187" y="273.559801" style="stroke: #000000; stroke-width: 0.8"/>
      </g>
     </g>
     <g id="text_17">
      <!-- month_April -->
      <g transform="translate(109.12625 277.35902) scale(0.1 -0.1)">
       <defs>
        <path id="DejaVuSans-41" d="M 2188 4044 
L 1331 1722 
L 3047 1722 
L 2188 4044 
z
M 1831 4666 
L 2547 4666 
L 4325 0 
L 3669 0 
L 3244 1197 
L 1141 1197 
L 716 0 
L 50 0 
L 1831 4666 
z
" transform="scale(0.015625)"/>
       </defs>
       <use xlink:href="#DejaVuSans-6d"/>
       <use xlink:href="#DejaVuSans-6f" transform="translate(97.412109 0)"/>
       <use xlink:href="#DejaVuSans-6e" transform="translate(158.59375 0)"/>
       <use xlink:href="#DejaVuSans-74" transform="translate(221.972656 0)"/>
       <use xlink:href="#DejaVuSans-68" transform="translate(261.181641 0)"/>
       <use xlink:href="#DejaVuSans-5f" transform="translate(324.560547 0)"/>
       <use xlink:href="#DejaVuSans-41" transform="translate(374.560547 0)"/>
       <use xlink:href="#DejaVuSans-70" transform="translate(442.96875 0)"/>
       <use xlink:href="#DejaVuSans-72" transform="translate(506.445312 0)"/>
       <use xlink:href="#DejaVuSans-69" transform="translate(547.558594 0)"/>
       <use xlink:href="#DejaVuSans-6c" transform="translate(575.341797 0)"/>
      </g>
     </g>
    </g>
    <g id="ytick_12">
     <g id="line2d_17">
      <g>
       <use xlink:href="#m1f93be09d7" x="176.437187" y="264.319578" style="stroke: #000000; stroke-width: 0.8"/>
      </g>
     </g>
     <g id="text_18">
      <!-- month_March -->
      <g transform="translate(101.504375 268.118796) scale(0.1 -0.1)">
       <use xlink:href="#DejaVuSans-6d"/>
       <use xlink:href="#DejaVuSans-6f" transform="translate(97.412109 0)"/>
       <use xlink:href="#DejaVuSans-6e" transform="translate(158.59375 0)"/>
       <use xlink:href="#DejaVuSans-74" transform="translate(221.972656 0)"/>
       <use xlink:href="#DejaVuSans-68" transform="translate(261.181641 0)"/>
       <use xlink:href="#DejaVuSans-5f" transform="translate(324.560547 0)"/>
       <use xlink:href="#DejaVuSans-4d" transform="translate(374.560547 0)"/>
       <use xlink:href="#DejaVuSans-61" transform="translate(460.839844 0)"/>
       <use xlink:href="#DejaVuSans-72" transform="translate(522.119141 0)"/>
       <use xlink:href="#DejaVuSans-63" transform="translate(560.982422 0)"/>
       <use xlink:href="#DejaVuSans-68" transform="translate(615.962891 0)"/>
      </g>
     </g>
    </g>
    <g id="ytick_13">
     <g id="line2d_18">
      <g>
       <use xlink:href="#m1f93be09d7" x="176.437187" y="255.079354" style="stroke: #000000; stroke-width: 0.8"/>
      </g>
     </g>
     <g id="text_19">
      <!-- weekday_Wednesday -->
      <g transform="translate(61.87 258.878573) scale(0.1 -0.1)">
       <defs>
        <path id="DejaVuSans-57" d="M 213 4666 
L 850 4666 
L 1831 722 
L 2809 4666 
L 3519 4666 
L 4500 722 
L 5478 4666 
L 6119 4666 
L 4947 0 
L 4153 0 
L 3169 4050 
L 2175 0 
L 1381 0 
L 213 4666 
z
" transform="scale(0.015625)"/>
       </defs>
       <use xlink:href="#DejaVuSans-77"/>
       <use xlink:href="#DejaVuSans-65" transform="translate(81.787109 0)"/>
       <use xlink:href="#DejaVuSans-65" transform="translate(143.310547 0)"/>
       <use xlink:href="#DejaVuSans-6b" transform="translate(204.833984 0)"/>
       <use xlink:href="#DejaVuSans-64" transform="translate(262.744141 0)"/>
       <use xlink:href="#DejaVuSans-61" transform="translate(326.220703 0)"/>
       <use xlink:href="#DejaVuSans-79" transform="translate(387.5 0)"/>
       <use xlink:href="#DejaVuSans-5f" transform="translate(446.679688 0)"/>
       <use xlink:href="#DejaVuSans-57" transform="translate(496.679688 0)"/>
       <use xlink:href="#DejaVuSans-65" transform="translate(589.681641 0)"/>
       <use xlink:href="#DejaVuSans-64" transform="translate(651.205078 0)"/>
       <use xlink:href="#DejaVuSans-6e" transform="translate(714.681641 0)"/>
       <use xlink:href="#DejaVuSans-65" transform="translate(778.060547 0)"/>
       <use xlink:href="#DejaVuSans-73" transform="translate(839.583984 0)"/>
       <use xlink:href="#DejaVuSans-64" transform="translate(891.683594 0)"/>
       <use xlink:href="#DejaVuSans-61" transform="translate(955.160156 0)"/>
       <use xlink:href="#DejaVuSans-79" transform="translate(1016.439453 0)"/>
      </g>
     </g>
    </g>
    <g id="ytick_14">
     <g id="line2d_19">
      <g>
       <use xlink:href="#m1f93be09d7" x="176.437187" y="245.839131" style="stroke: #000000; stroke-width: 0.8"/>
      </g>
     </g>
     <g id="text_20">
      <!-- rain_1h -->
      <g transform="translate(132.3825 249.638349) scale(0.1 -0.1)">
       <use xlink:href="#DejaVuSans-72"/>
       <use xlink:href="#DejaVuSans-61" transform="translate(41.113281 0)"/>
       <use xlink:href="#DejaVuSans-69" transform="translate(102.392578 0)"/>
       <use xlink:href="#DejaVuSans-6e" transform="translate(130.175781 0)"/>
       <use xlink:href="#DejaVuSans-5f" transform="translate(193.554688 0)"/>
       <use xlink:href="#DejaVuSans-31" transform="translate(243.554688 0)"/>
       <use xlink:href="#DejaVuSans-68" transform="translate(307.177734 0)"/>
      </g>
     </g>
    </g>
    <g id="ytick_15">
     <g id="line2d_20">
      <g>
       <use xlink:href="#m1f93be09d7" x="176.437187" y="236.598907" style="stroke: #000000; stroke-width: 0.8"/>
      </g>
     </g>
     <g id="text_21">
      <!-- temp -->
      <g transform="translate(143.274687 240.398126) scale(0.1 -0.1)">
       <use xlink:href="#DejaVuSans-74"/>
       <use xlink:href="#DejaVuSans-65" transform="translate(39.208984 0)"/>
       <use xlink:href="#DejaVuSans-6d" transform="translate(100.732422 0)"/>
       <use xlink:href="#DejaVuSans-70" transform="translate(198.144531 0)"/>
      </g>
     </g>
    </g>
    <g id="ytick_16">
     <g id="line2d_21">
      <g>
       <use xlink:href="#m1f93be09d7" x="176.437187" y="227.358684" style="stroke: #000000; stroke-width: 0.8"/>
      </g>
     </g>
     <g id="text_22">
      <!-- weekday_Tuesday -->
      <g transform="translate(79.07625 231.157902) scale(0.1 -0.1)">
       <use xlink:href="#DejaVuSans-77"/>
       <use xlink:href="#DejaVuSans-65" transform="translate(81.787109 0)"/>
       <use xlink:href="#DejaVuSans-65" transform="translate(143.310547 0)"/>
       <use xlink:href="#DejaVuSans-6b" transform="translate(204.833984 0)"/>
       <use xlink:href="#DejaVuSans-64" transform="translate(262.744141 0)"/>
       <use xlink:href="#DejaVuSans-61" transform="translate(326.220703 0)"/>
       <use xlink:href="#DejaVuSans-79" transform="translate(387.5 0)"/>
       <use xlink:href="#DejaVuSans-5f" transform="translate(446.679688 0)"/>
       <use xlink:href="#DejaVuSans-54" transform="translate(496.679688 0)"/>
       <use xlink:href="#DejaVuSans-75" transform="translate(542.638672 0)"/>
       <use xlink:href="#DejaVuSans-65" transform="translate(606.017578 0)"/>
       <use xlink:href="#DejaVuSans-73" transform="translate(667.541016 0)"/>
       <use xlink:href="#DejaVuSans-64" transform="translate(719.640625 0)"/>
       <use xlink:href="#DejaVuSans-61" transform="translate(783.117188 0)"/>
       <use xlink:href="#DejaVuSans-79" transform="translate(844.396484 0)"/>
      </g>
     </g>
    </g>
    <g id="ytick_17">
     <g id="line2d_22">
      <g>
       <use xlink:href="#m1f93be09d7" x="176.437187" y="218.11846" style="stroke: #000000; stroke-width: 0.8"/>
      </g>
     </g>
     <g id="text_23">
      <!-- weather_main_Clouds -->
      <g transform="translate(59.696562 221.917679) scale(0.1 -0.1)">
       <defs>
        <path id="DejaVuSans-43" d="M 4122 4306 
L 4122 3641 
Q 3803 3938 3442 4084 
Q 3081 4231 2675 4231 
Q 1875 4231 1450 3742 
Q 1025 3253 1025 2328 
Q 1025 1406 1450 917 
Q 1875 428 2675 428 
Q 3081 428 3442 575 
Q 3803 722 4122 1019 
L 4122 359 
Q 3791 134 3420 21 
Q 3050 -91 2638 -91 
Q 1578 -91 968 557 
Q 359 1206 359 2328 
Q 359 3453 968 4101 
Q 1578 4750 2638 4750 
Q 3056 4750 3426 4639 
Q 3797 4528 4122 4306 
z
" transform="scale(0.015625)"/>
       </defs>
       <use xlink:href="#DejaVuSans-77"/>
       <use xlink:href="#DejaVuSans-65" transform="translate(81.787109 0)"/>
       <use xlink:href="#DejaVuSans-61" transform="translate(143.310547 0)"/>
       <use xlink:href="#DejaVuSans-74" transform="translate(204.589844 0)"/>
       <use xlink:href="#DejaVuSans-68" transform="translate(243.798828 0)"/>
       <use xlink:href="#DejaVuSans-65" transform="translate(307.177734 0)"/>
       <use xlink:href="#DejaVuSans-72" transform="translate(368.701172 0)"/>
       <use xlink:href="#DejaVuSans-5f" transform="translate(409.814453 0)"/>
       <use xlink:href="#DejaVuSans-6d" transform="translate(459.814453 0)"/>
       <use xlink:href="#DejaVuSans-61" transform="translate(557.226562 0)"/>
       <use xlink:href="#DejaVuSans-69" transform="translate(618.505859 0)"/>
       <use xlink:href="#DejaVuSans-6e" transform="translate(646.289062 0)"/>
       <use xlink:href="#DejaVuSans-5f" transform="translate(709.667969 0)"/>
       <use xlink:href="#DejaVuSans-43" transform="translate(759.667969 0)"/>
       <use xlink:href="#DejaVuSans-6c" transform="translate(829.492188 0)"/>
       <use xlink:href="#DejaVuSans-6f" transform="translate(857.275391 0)"/>
       <use xlink:href="#DejaVuSans-75" transform="translate(918.457031 0)"/>
       <use xlink:href="#DejaVuSans-64" transform="translate(981.835938 0)"/>
       <use xlink:href="#DejaVuSans-73" transform="translate(1045.3125 0)"/>
      </g>
     </g>
    </g>
    <g id="ytick_18">
     <g id="line2d_23">
      <g>
       <use xlink:href="#m1f93be09d7" x="176.437187" y="208.878237" style="stroke: #000000; stroke-width: 0.8"/>
      </g>
     </g>
     <g id="text_24">
      <!-- month_September -->
      <g transform="translate(76.705937 212.677455) scale(0.1 -0.1)">
       <use xlink:href="#DejaVuSans-6d"/>
       <use xlink:href="#DejaVuSans-6f" transform="translate(97.412109 0)"/>
       <use xlink:href="#DejaVuSans-6e" transform="translate(158.59375 0)"/>
       <use xlink:href="#DejaVuSans-74" transform="translate(221.972656 0)"/>
       <use xlink:href="#DejaVuSans-68" transform="translate(261.181641 0)"/>
       <use xlink:href="#DejaVuSans-5f" transform="translate(324.560547 0)"/>
       <use xlink:href="#DejaVuSans-53" transform="translate(374.560547 0)"/>
       <use xlink:href="#DejaVuSans-65" transform="translate(438.037109 0)"/>
       <use xlink:href="#DejaVuSans-70" transform="translate(499.560547 0)"/>
       <use xlink:href="#DejaVuSans-74" transform="translate(563.037109 0)"/>
       <use xlink:href="#DejaVuSans-65" transform="translate(602.246094 0)"/>
       <use xlink:href="#DejaVuSans-6d" transform="translate(663.769531 0)"/>
       <use xlink:href="#DejaVuSans-62" transform="translate(761.181641 0)"/>
       <use xlink:href="#DejaVuSans-65" transform="translate(824.658203 0)"/>
       <use xlink:href="#DejaVuSans-72" transform="translate(886.181641 0)"/>
      </g>
     </g>
    </g>
    <g id="ytick_19">
     <g id="line2d_24">
      <g>
       <use xlink:href="#m1f93be09d7" x="176.437187" y="199.638013" style="stroke: #000000; stroke-width: 0.8"/>
      </g>
     </g>
     <g id="text_25">
      <!-- weather_main_Snow -->
      <g transform="translate(66.48875 203.437232) scale(0.1 -0.1)">
       <use xlink:href="#DejaVuSans-77"/>
       <use xlink:href="#DejaVuSans-65" transform="translate(81.787109 0)"/>
       <use xlink:href="#DejaVuSans-61" transform="translate(143.310547 0)"/>
       <use xlink:href="#DejaVuSans-74" transform="translate(204.589844 0)"/>
       <use xlink:href="#DejaVuSans-68" transform="translate(243.798828 0)"/>
       <use xlink:href="#DejaVuSans-65" transform="translate(307.177734 0)"/>
       <use xlink:href="#DejaVuSans-72" transform="translate(368.701172 0)"/>
       <use xlink:href="#DejaVuSans-5f" transform="translate(409.814453 0)"/>
       <use xlink:href="#DejaVuSans-6d" transform="translate(459.814453 0)"/>
       <use xlink:href="#DejaVuSans-61" transform="translate(557.226562 0)"/>
       <use xlink:href="#DejaVuSans-69" transform="translate(618.505859 0)"/>
       <use xlink:href="#DejaVuSans-6e" transform="translate(646.289062 0)"/>
       <use xlink:href="#DejaVuSans-5f" transform="translate(709.667969 0)"/>
       <use xlink:href="#DejaVuSans-53" transform="translate(759.667969 0)"/>
       <use xlink:href="#DejaVuSans-6e" transform="translate(823.144531 0)"/>
       <use xlink:href="#DejaVuSans-6f" transform="translate(886.523438 0)"/>
       <use xlink:href="#DejaVuSans-77" transform="translate(947.705078 0)"/>
      </g>
     </g>
    </g>
    <g id="ytick_20">
     <g id="line2d_25">
      <g>
       <use xlink:href="#m1f93be09d7" x="176.437187" y="190.39779" style="stroke: #000000; stroke-width: 0.8"/>
      </g>
     </g>
     <g id="text_26">
      <!-- month_January -->
      <g transform="translate(94.071562 194.197009) scale(0.1 -0.1)">
       <use xlink:href="#DejaVuSans-6d"/>
       <use xlink:href="#DejaVuSans-6f" transform="translate(97.412109 0)"/>
       <use xlink:href="#DejaVuSans-6e" transform="translate(158.59375 0)"/>
       <use xlink:href="#DejaVuSans-74" transform="translate(221.972656 0)"/>
       <use xlink:href="#DejaVuSans-68" transform="translate(261.181641 0)"/>
       <use xlink:href="#DejaVuSans-5f" transform="translate(324.560547 0)"/>
       <use xlink:href="#DejaVuSans-4a" transform="translate(374.560547 0)"/>
       <use xlink:href="#DejaVuSans-61" transform="translate(404.052734 0)"/>
       <use xlink:href="#DejaVuSans-6e" transform="translate(465.332031 0)"/>
       <use xlink:href="#DejaVuSans-75" transform="translate(528.710938 0)"/>
       <use xlink:href="#DejaVuSans-61" transform="translate(592.089844 0)"/>
       <use xlink:href="#DejaVuSans-72" transform="translate(653.369141 0)"/>
       <use xlink:href="#DejaVuSans-79" transform="translate(694.482422 0)"/>
      </g>
     </g>
    </g>
    <g id="ytick_21">
     <g id="line2d_26">
      <g>
       <use xlink:href="#m1f93be09d7" x="176.437187" y="181.157566" style="stroke: #000000; stroke-width: 0.8"/>
      </g>
     </g>
     <g id="text_27">
      <!-- weather_main_Mist -->
      <g transform="translate(72.935625 184.956785) scale(0.1 -0.1)">
       <use xlink:href="#DejaVuSans-77"/>
       <use xlink:href="#DejaVuSans-65" transform="translate(81.787109 0)"/>
       <use xlink:href="#DejaVuSans-61" transform="translate(143.310547 0)"/>
       <use xlink:href="#DejaVuSans-74" transform="translate(204.589844 0)"/>
       <use xlink:href="#DejaVuSans-68" transform="translate(243.798828 0)"/>
       <use xlink:href="#DejaVuSans-65" transform="translate(307.177734 0)"/>
       <use xlink:href="#DejaVuSans-72" transform="translate(368.701172 0)"/>
       <use xlink:href="#DejaVuSans-5f" transform="translate(409.814453 0)"/>
       <use xlink:href="#DejaVuSans-6d" transform="translate(459.814453 0)"/>
       <use xlink:href="#DejaVuSans-61" transform="translate(557.226562 0)"/>
       <use xlink:href="#DejaVuSans-69" transform="translate(618.505859 0)"/>
       <use xlink:href="#DejaVuSans-6e" transform="translate(646.289062 0)"/>
       <use xlink:href="#DejaVuSans-5f" transform="translate(709.667969 0)"/>
       <use xlink:href="#DejaVuSans-4d" transform="translate(759.667969 0)"/>
       <use xlink:href="#DejaVuSans-69" transform="translate(845.947266 0)"/>
       <use xlink:href="#DejaVuSans-73" transform="translate(873.730469 0)"/>
       <use xlink:href="#DejaVuSans-74" transform="translate(925.830078 0)"/>
      </g>
     </g>
    </g>
    <g id="ytick_22">
     <g id="line2d_27">
      <g>
       <use xlink:href="#m1f93be09d7" x="176.437187" y="171.917343" style="stroke: #000000; stroke-width: 0.8"/>
      </g>
     </g>
     <g id="text_28">
      <!-- month_May -->
      <g transform="translate(111.3075 175.716562) scale(0.1 -0.1)">
       <use xlink:href="#DejaVuSans-6d"/>
       <use xlink:href="#DejaVuSans-6f" transform="translate(97.412109 0)"/>
       <use xlink:href="#DejaVuSans-6e" transform="translate(158.59375 0)"/>
       <use xlink:href="#DejaVuSans-74" transform="translate(221.972656 0)"/>
       <use xlink:href="#DejaVuSans-68" transform="translate(261.181641 0)"/>
       <use xlink:href="#DejaVuSans-5f" transform="translate(324.560547 0)"/>
       <use xlink:href="#DejaVuSans-4d" transform="translate(374.560547 0)"/>
       <use xlink:href="#DejaVuSans-61" transform="translate(460.839844 0)"/>
       <use xlink:href="#DejaVuSans-79" transform="translate(522.119141 0)"/>
      </g>
     </g>
    </g>
    <g id="ytick_23">
     <g id="line2d_28">
      <g>
       <use xlink:href="#m1f93be09d7" x="176.437187" y="162.677119" style="stroke: #000000; stroke-width: 0.8"/>
      </g>
     </g>
     <g id="text_29">
      <!-- month_February -->
      <g transform="translate(87.673125 166.476338) scale(0.1 -0.1)">
       <use xlink:href="#DejaVuSans-6d"/>
       <use xlink:href="#DejaVuSans-6f" transform="translate(97.412109 0)"/>
       <use xlink:href="#DejaVuSans-6e" transform="translate(158.59375 0)"/>
       <use xlink:href="#DejaVuSans-74" transform="translate(221.972656 0)"/>
       <use xlink:href="#DejaVuSans-68" transform="translate(261.181641 0)"/>
       <use xlink:href="#DejaVuSans-5f" transform="translate(324.560547 0)"/>
       <use xlink:href="#DejaVuSans-46" transform="translate(374.560547 0)"/>
       <use xlink:href="#DejaVuSans-65" transform="translate(426.580078 0)"/>
       <use xlink:href="#DejaVuSans-62" transform="translate(488.103516 0)"/>
       <use xlink:href="#DejaVuSans-72" transform="translate(551.580078 0)"/>
       <use xlink:href="#DejaVuSans-75" transform="translate(592.693359 0)"/>
       <use xlink:href="#DejaVuSans-61" transform="translate(656.072266 0)"/>
       <use xlink:href="#DejaVuSans-72" transform="translate(717.351562 0)"/>
       <use xlink:href="#DejaVuSans-79" transform="translate(758.464844 0)"/>
      </g>
     </g>
    </g>
    <g id="ytick_24">
     <g id="line2d_29">
      <g>
       <use xlink:href="#m1f93be09d7" x="176.437187" y="153.436896" style="stroke: #000000; stroke-width: 0.8"/>
      </g>
     </g>
     <g id="text_30">
      <!-- clouds_all -->
      <g transform="translate(120.462187 157.236115) scale(0.1 -0.1)">
       <use xlink:href="#DejaVuSans-63"/>
       <use xlink:href="#DejaVuSans-6c" transform="translate(54.980469 0)"/>
       <use xlink:href="#DejaVuSans-6f" transform="translate(82.763672 0)"/>
       <use xlink:href="#DejaVuSans-75" transform="translate(143.945312 0)"/>
       <use xlink:href="#DejaVuSans-64" transform="translate(207.324219 0)"/>
       <use xlink:href="#DejaVuSans-73" transform="translate(270.800781 0)"/>
       <use xlink:href="#DejaVuSans-5f" transform="translate(322.900391 0)"/>
       <use xlink:href="#DejaVuSans-61" transform="translate(372.900391 0)"/>
       <use xlink:href="#DejaVuSans-6c" transform="translate(434.179688 0)"/>
       <use xlink:href="#DejaVuSans-6c" transform="translate(461.962891 0)"/>
      </g>
     </g>
    </g>
    <g id="ytick_25">
     <g id="line2d_30">
      <g>
       <use xlink:href="#m1f93be09d7" x="176.437187" y="144.196672" style="stroke: #000000; stroke-width: 0.8"/>
      </g>
     </g>
     <g id="text_31">
      <!-- month_October -->
      <g transform="translate(91.960625 147.995891) scale(0.1 -0.1)">
       <defs>
        <path id="DejaVuSans-4f" d="M 2522 4238 
Q 1834 4238 1429 3725 
Q 1025 3213 1025 2328 
Q 1025 1447 1429 934 
Q 1834 422 2522 422 
Q 3209 422 3611 934 
Q 4013 1447 4013 2328 
Q 4013 3213 3611 3725 
Q 3209 4238 2522 4238 
z
M 2522 4750 
Q 3503 4750 4090 4092 
Q 4678 3434 4678 2328 
Q 4678 1225 4090 567 
Q 3503 -91 2522 -91 
Q 1538 -91 948 565 
Q 359 1222 359 2328 
Q 359 3434 948 4092 
Q 1538 4750 2522 4750 
z
" transform="scale(0.015625)"/>
       </defs>
       <use xlink:href="#DejaVuSans-6d"/>
       <use xlink:href="#DejaVuSans-6f" transform="translate(97.412109 0)"/>
       <use xlink:href="#DejaVuSans-6e" transform="translate(158.59375 0)"/>
       <use xlink:href="#DejaVuSans-74" transform="translate(221.972656 0)"/>
       <use xlink:href="#DejaVuSans-68" transform="translate(261.181641 0)"/>
       <use xlink:href="#DejaVuSans-5f" transform="translate(324.560547 0)"/>
       <use xlink:href="#DejaVuSans-4f" transform="translate(374.560547 0)"/>
       <use xlink:href="#DejaVuSans-63" transform="translate(453.271484 0)"/>
       <use xlink:href="#DejaVuSans-74" transform="translate(508.251953 0)"/>
       <use xlink:href="#DejaVuSans-6f" transform="translate(547.460938 0)"/>
       <use xlink:href="#DejaVuSans-62" transform="translate(608.642578 0)"/>
       <use xlink:href="#DejaVuSans-65" transform="translate(672.119141 0)"/>
       <use xlink:href="#DejaVuSans-72" transform="translate(733.642578 0)"/>
      </g>
     </g>
    </g>
    <g id="ytick_26">
     <g id="line2d_31">
      <g>
       <use xlink:href="#m1f93be09d7" x="176.437187" y="134.956449" style="stroke: #000000; stroke-width: 0.8"/>
      </g>
     </g>
     <g id="text_32">
      <!-- weather_main_Thunderstorm -->
      <g transform="translate(22.81375 138.755668) scale(0.1 -0.1)">
       <use xlink:href="#DejaVuSans-77"/>
       <use xlink:href="#DejaVuSans-65" transform="translate(81.787109 0)"/>
       <use xlink:href="#DejaVuSans-61" transform="translate(143.310547 0)"/>
       <use xlink:href="#DejaVuSans-74" transform="translate(204.589844 0)"/>
       <use xlink:href="#DejaVuSans-68" transform="translate(243.798828 0)"/>
       <use xlink:href="#DejaVuSans-65" transform="translate(307.177734 0)"/>
       <use xlink:href="#DejaVuSans-72" transform="translate(368.701172 0)"/>
       <use xlink:href="#DejaVuSans-5f" transform="translate(409.814453 0)"/>
       <use xlink:href="#DejaVuSans-6d" transform="translate(459.814453 0)"/>
       <use xlink:href="#DejaVuSans-61" transform="translate(557.226562 0)"/>
       <use xlink:href="#DejaVuSans-69" transform="translate(618.505859 0)"/>
       <use xlink:href="#DejaVuSans-6e" transform="translate(646.289062 0)"/>
       <use xlink:href="#DejaVuSans-5f" transform="translate(709.667969 0)"/>
       <use xlink:href="#DejaVuSans-54" transform="translate(759.667969 0)"/>
       <use xlink:href="#DejaVuSans-68" transform="translate(820.751953 0)"/>
       <use xlink:href="#DejaVuSans-75" transform="translate(884.130859 0)"/>
       <use xlink:href="#DejaVuSans-6e" transform="translate(947.509766 0)"/>
       <use xlink:href="#DejaVuSans-64" transform="translate(1010.888672 0)"/>
       <use xlink:href="#DejaVuSans-65" transform="translate(1074.365234 0)"/>
       <use xlink:href="#DejaVuSans-72" transform="translate(1135.888672 0)"/>
       <use xlink:href="#DejaVuSans-73" transform="translate(1177.001953 0)"/>
       <use xlink:href="#DejaVuSans-74" transform="translate(1229.101562 0)"/>
       <use xlink:href="#DejaVuSans-6f" transform="translate(1268.310547 0)"/>
       <use xlink:href="#DejaVuSans-72" transform="translate(1329.492188 0)"/>
       <use xlink:href="#DejaVuSans-6d" transform="translate(1368.855469 0)"/>
      </g>
     </g>
    </g>
    <g id="ytick_27">
     <g id="line2d_32">
      <g>
       <use xlink:href="#m1f93be09d7" x="176.437187" y="125.716226" style="stroke: #000000; stroke-width: 0.8"/>
      </g>
     </g>
     <g id="text_33">
      <!-- weather_main_Haze -->
      <g transform="translate(68.421562 129.515444) scale(0.1 -0.1)">
       <defs>
        <path id="DejaVuSans-48" d="M 628 4666 
L 1259 4666 
L 1259 2753 
L 3553 2753 
L 3553 4666 
L 4184 4666 
L 4184 0 
L 3553 0 
L 3553 2222 
L 1259 2222 
L 1259 0 
L 628 0 
L 628 4666 
z
" transform="scale(0.015625)"/>
        <path id="DejaVuSans-7a" d="M 353 3500 
L 3084 3500 
L 3084 2975 
L 922 459 
L 3084 459 
L 3084 0 
L 275 0 
L 275 525 
L 2438 3041 
L 353 3041 
L 353 3500 
z
" transform="scale(0.015625)"/>
       </defs>
       <use xlink:href="#DejaVuSans-77"/>
       <use xlink:href="#DejaVuSans-65" transform="translate(81.787109 0)"/>
       <use xlink:href="#DejaVuSans-61" transform="translate(143.310547 0)"/>
       <use xlink:href="#DejaVuSans-74" transform="translate(204.589844 0)"/>
       <use xlink:href="#DejaVuSans-68" transform="translate(243.798828 0)"/>
       <use xlink:href="#DejaVuSans-65" transform="translate(307.177734 0)"/>
       <use xlink:href="#DejaVuSans-72" transform="translate(368.701172 0)"/>
       <use xlink:href="#DejaVuSans-5f" transform="translate(409.814453 0)"/>
       <use xlink:href="#DejaVuSans-6d" transform="translate(459.814453 0)"/>
       <use xlink:href="#DejaVuSans-61" transform="translate(557.226562 0)"/>
       <use xlink:href="#DejaVuSans-69" transform="translate(618.505859 0)"/>
       <use xlink:href="#DejaVuSans-6e" transform="translate(646.289062 0)"/>
       <use xlink:href="#DejaVuSans-5f" transform="translate(709.667969 0)"/>
       <use xlink:href="#DejaVuSans-48" transform="translate(759.667969 0)"/>
       <use xlink:href="#DejaVuSans-61" transform="translate(834.863281 0)"/>
       <use xlink:href="#DejaVuSans-7a" transform="translate(896.142578 0)"/>
       <use xlink:href="#DejaVuSans-65" transform="translate(948.632812 0)"/>
      </g>
     </g>
    </g>
    <g id="ytick_28">
     <g id="line2d_33">
      <g>
       <use xlink:href="#m1f93be09d7" x="176.437187" y="116.476002" style="stroke: #000000; stroke-width: 0.8"/>
      </g>
     </g>
     <g id="text_34">
      <!-- month_June -->
      <g transform="translate(110.204375 120.275221) scale(0.1 -0.1)">
       <use xlink:href="#DejaVuSans-6d"/>
       <use xlink:href="#DejaVuSans-6f" transform="translate(97.412109 0)"/>
       <use xlink:href="#DejaVuSans-6e" transform="translate(158.59375 0)"/>
       <use xlink:href="#DejaVuSans-74" transform="translate(221.972656 0)"/>
       <use xlink:href="#DejaVuSans-68" transform="translate(261.181641 0)"/>
       <use xlink:href="#DejaVuSans-5f" transform="translate(324.560547 0)"/>
       <use xlink:href="#DejaVuSans-4a" transform="translate(374.560547 0)"/>
       <use xlink:href="#DejaVuSans-75" transform="translate(404.052734 0)"/>
       <use xlink:href="#DejaVuSans-6e" transform="translate(467.431641 0)"/>
       <use xlink:href="#DejaVuSans-65" transform="translate(530.810547 0)"/>
      </g>
     </g>
    </g>
    <g id="ytick_29">
     <g id="line2d_34">
      <g>
       <use xlink:href="#m1f93be09d7" x="176.437187" y="107.235779" style="stroke: #000000; stroke-width: 0.8"/>
      </g>
     </g>
     <g id="text_35">
      <!-- weather_main_Clear -->
      <g transform="translate(67.318437 111.034997) scale(0.1 -0.1)">
       <use xlink:href="#DejaVuSans-77"/>
       <use xlink:href="#DejaVuSans-65" transform="translate(81.787109 0)"/>
       <use xlink:href="#DejaVuSans-61" transform="translate(143.310547 0)"/>
       <use xlink:href="#DejaVuSans-74" transform="translate(204.589844 0)"/>
       <use xlink:href="#DejaVuSans-68" transform="translate(243.798828 0)"/>
       <use xlink:href="#DejaVuSans-65" transform="translate(307.177734 0)"/>
       <use xlink:href="#DejaVuSans-72" transform="translate(368.701172 0)"/>
       <use xlink:href="#DejaVuSans-5f" transform="translate(409.814453 0)"/>
       <use xlink:href="#DejaVuSans-6d" transform="translate(459.814453 0)"/>
       <use xlink:href="#DejaVuSans-61" transform="translate(557.226562 0)"/>
       <use xlink:href="#DejaVuSans-69" transform="translate(618.505859 0)"/>
       <use xlink:href="#DejaVuSans-6e" transform="translate(646.289062 0)"/>
       <use xlink:href="#DejaVuSans-5f" transform="translate(709.667969 0)"/>
       <use xlink:href="#DejaVuSans-43" transform="translate(759.667969 0)"/>
       <use xlink:href="#DejaVuSans-6c" transform="translate(829.492188 0)"/>
       <use xlink:href="#DejaVuSans-65" transform="translate(857.275391 0)"/>
       <use xlink:href="#DejaVuSans-61" transform="translate(918.798828 0)"/>
       <use xlink:href="#DejaVuSans-72" transform="translate(980.078125 0)"/>
      </g>
     </g>
    </g>
    <g id="ytick_30">
     <g id="line2d_35">
      <g>
       <use xlink:href="#m1f93be09d7" x="176.437187" y="97.995555" style="stroke: #000000; stroke-width: 0.8"/>
      </g>
     </g>
     <g id="text_36">
      <!-- month_August -->
      <g transform="translate(96.98875 101.794774) scale(0.1 -0.1)">
       <use xlink:href="#DejaVuSans-6d"/>
       <use xlink:href="#DejaVuSans-6f" transform="translate(97.412109 0)"/>
       <use xlink:href="#DejaVuSans-6e" transform="translate(158.59375 0)"/>
       <use xlink:href="#DejaVuSans-74" transform="translate(221.972656 0)"/>
       <use xlink:href="#DejaVuSans-68" transform="translate(261.181641 0)"/>
       <use xlink:href="#DejaVuSans-5f" transform="translate(324.560547 0)"/>
       <use xlink:href="#DejaVuSans-41" transform="translate(374.560547 0)"/>
       <use xlink:href="#DejaVuSans-75" transform="translate(442.96875 0)"/>
       <use xlink:href="#DejaVuSans-67" transform="translate(506.347656 0)"/>
       <use xlink:href="#DejaVuSans-75" transform="translate(569.824219 0)"/>
       <use xlink:href="#DejaVuSans-73" transform="translate(633.203125 0)"/>
       <use xlink:href="#DejaVuSans-74" transform="translate(685.302734 0)"/>
      </g>
     </g>
    </g>
    <g id="ytick_31">
     <g id="line2d_36">
      <g>
       <use xlink:href="#m1f93be09d7" x="176.437187" y="88.755332" style="stroke: #000000; stroke-width: 0.8"/>
      </g>
     </g>
     <g id="text_37">
      <!-- weather_main_Rain -->
      <g transform="translate(71.504375 92.55455) scale(0.1 -0.1)">
       <defs>
        <path id="DejaVuSans-52" d="M 2841 2188 
Q 3044 2119 3236 1894 
Q 3428 1669 3622 1275 
L 4263 0 
L 3584 0 
L 2988 1197 
Q 2756 1666 2539 1819 
Q 2322 1972 1947 1972 
L 1259 1972 
L 1259 0 
L 628 0 
L 628 4666 
L 2053 4666 
Q 2853 4666 3247 4331 
Q 3641 3997 3641 3322 
Q 3641 2881 3436 2590 
Q 3231 2300 2841 2188 
z
M 1259 4147 
L 1259 2491 
L 2053 2491 
Q 2509 2491 2742 2702 
Q 2975 2913 2975 3322 
Q 2975 3731 2742 3939 
Q 2509 4147 2053 4147 
L 1259 4147 
z
" transform="scale(0.015625)"/>
       </defs>
       <use xlink:href="#DejaVuSans-77"/>
       <use xlink:href="#DejaVuSans-65" transform="translate(81.787109 0)"/>
       <use xlink:href="#DejaVuSans-61" transform="translate(143.310547 0)"/>
       <use xlink:href="#DejaVuSans-74" transform="translate(204.589844 0)"/>
       <use xlink:href="#DejaVuSans-68" transform="translate(243.798828 0)"/>
       <use xlink:href="#DejaVuSans-65" transform="translate(307.177734 0)"/>
       <use xlink:href="#DejaVuSans-72" transform="translate(368.701172 0)"/>
       <use xlink:href="#DejaVuSans-5f" transform="translate(409.814453 0)"/>
       <use xlink:href="#DejaVuSans-6d" transform="translate(459.814453 0)"/>
       <use xlink:href="#DejaVuSans-61" transform="translate(557.226562 0)"/>
       <use xlink:href="#DejaVuSans-69" transform="translate(618.505859 0)"/>
       <use xlink:href="#DejaVuSans-6e" transform="translate(646.289062 0)"/>
       <use xlink:href="#DejaVuSans-5f" transform="translate(709.667969 0)"/>
       <use xlink:href="#DejaVuSans-52" transform="translate(759.667969 0)"/>
       <use xlink:href="#DejaVuSans-61" transform="translate(826.900391 0)"/>
       <use xlink:href="#DejaVuSans-69" transform="translate(888.179688 0)"/>
       <use xlink:href="#DejaVuSans-6e" transform="translate(915.962891 0)"/>
      </g>
     </g>
    </g>
    <g id="ytick_32">
     <g id="line2d_37">
      <g>
       <use xlink:href="#m1f93be09d7" x="176.437187" y="79.515108" style="stroke: #000000; stroke-width: 0.8"/>
      </g>
     </g>
     <g id="text_38">
      <!-- snow_1h -->
      <g transform="translate(125.893437 83.314327) scale(0.1 -0.1)">
       <use xlink:href="#DejaVuSans-73"/>
       <use xlink:href="#DejaVuSans-6e" transform="translate(52.099609 0)"/>
       <use xlink:href="#DejaVuSans-6f" transform="translate(115.478516 0)"/>
       <use xlink:href="#DejaVuSans-77" transform="translate(176.660156 0)"/>
       <use xlink:href="#DejaVuSans-5f" transform="translate(258.447266 0)"/>
       <use xlink:href="#DejaVuSans-31" transform="translate(308.447266 0)"/>
       <use xlink:href="#DejaVuSans-68" transform="translate(372.070312 0)"/>
      </g>
     </g>
    </g>
    <g id="ytick_33">
     <g id="line2d_38">
      <g>
       <use xlink:href="#m1f93be09d7" x="176.437187" y="70.274885" style="stroke: #000000; stroke-width: 0.8"/>
      </g>
     </g>
     <g id="text_39">
      <!-- weather_main_Drizzle -->
      <g transform="translate(59.454375 74.074104) scale(0.1 -0.1)">
       <use xlink:href="#DejaVuSans-77"/>
       <use xlink:href="#DejaVuSans-65" transform="translate(81.787109 0)"/>
       <use xlink:href="#DejaVuSans-61" transform="translate(143.310547 0)"/>
       <use xlink:href="#DejaVuSans-74" transform="translate(204.589844 0)"/>
       <use xlink:href="#DejaVuSans-68" transform="translate(243.798828 0)"/>
       <use xlink:href="#DejaVuSans-65" transform="translate(307.177734 0)"/>
       <use xlink:href="#DejaVuSans-72" transform="translate(368.701172 0)"/>
       <use xlink:href="#DejaVuSans-5f" transform="translate(409.814453 0)"/>
       <use xlink:href="#DejaVuSans-6d" transform="translate(459.814453 0)"/>
       <use xlink:href="#DejaVuSans-61" transform="translate(557.226562 0)"/>
       <use xlink:href="#DejaVuSans-69" transform="translate(618.505859 0)"/>
       <use xlink:href="#DejaVuSans-6e" transform="translate(646.289062 0)"/>
       <use xlink:href="#DejaVuSans-5f" transform="translate(709.667969 0)"/>
       <use xlink:href="#DejaVuSans-44" transform="translate(759.667969 0)"/>
       <use xlink:href="#DejaVuSans-72" transform="translate(836.669922 0)"/>
       <use xlink:href="#DejaVuSans-69" transform="translate(877.783203 0)"/>
       <use xlink:href="#DejaVuSans-7a" transform="translate(905.566406 0)"/>
       <use xlink:href="#DejaVuSans-7a" transform="translate(958.056641 0)"/>
       <use xlink:href="#DejaVuSans-6c" transform="translate(1010.546875 0)"/>
       <use xlink:href="#DejaVuSans-65" transform="translate(1038.330078 0)"/>
      </g>
     </g>
    </g>
    <g id="ytick_34">
     <g id="line2d_39">
      <g>
       <use xlink:href="#m1f93be09d7" x="176.437187" y="61.034661" style="stroke: #000000; stroke-width: 0.8"/>
      </g>
     </g>
     <g id="text_40">
      <!-- weather_main_Squall -->
      <g transform="translate(62.752812 64.83388) scale(0.1 -0.1)">
       <defs>
        <path id="DejaVuSans-71" d="M 947 1747 
Q 947 1113 1208 752 
Q 1469 391 1925 391 
Q 2381 391 2643 752 
Q 2906 1113 2906 1747 
Q 2906 2381 2643 2742 
Q 2381 3103 1925 3103 
Q 1469 3103 1208 2742 
Q 947 2381 947 1747 
z
M 2906 525 
Q 2725 213 2448 61 
Q 2172 -91 1784 -91 
Q 1150 -91 751 415 
Q 353 922 353 1747 
Q 353 2572 751 3078 
Q 1150 3584 1784 3584 
Q 2172 3584 2448 3432 
Q 2725 3281 2906 2969 
L 2906 3500 
L 3481 3500 
L 3481 -1331 
L 2906 -1331 
L 2906 525 
z
" transform="scale(0.015625)"/>
       </defs>
       <use xlink:href="#DejaVuSans-77"/>
       <use xlink:href="#DejaVuSans-65" transform="translate(81.787109 0)"/>
       <use xlink:href="#DejaVuSans-61" transform="translate(143.310547 0)"/>
       <use xlink:href="#DejaVuSans-74" transform="translate(204.589844 0)"/>
       <use xlink:href="#DejaVuSans-68" transform="translate(243.798828 0)"/>
       <use xlink:href="#DejaVuSans-65" transform="translate(307.177734 0)"/>
       <use xlink:href="#DejaVuSans-72" transform="translate(368.701172 0)"/>
       <use xlink:href="#DejaVuSans-5f" transform="translate(409.814453 0)"/>
       <use xlink:href="#DejaVuSans-6d" transform="translate(459.814453 0)"/>
       <use xlink:href="#DejaVuSans-61" transform="translate(557.226562 0)"/>
       <use xlink:href="#DejaVuSans-69" transform="translate(618.505859 0)"/>
       <use xlink:href="#DejaVuSans-6e" transform="translate(646.289062 0)"/>
       <use xlink:href="#DejaVuSans-5f" transform="translate(709.667969 0)"/>
       <use xlink:href="#DejaVuSans-53" transform="translate(759.667969 0)"/>
       <use xlink:href="#DejaVuSans-71" transform="translate(823.144531 0)"/>
       <use xlink:href="#DejaVuSans-75" transform="translate(886.621094 0)"/>
       <use xlink:href="#DejaVuSans-61" transform="translate(950 0)"/>
       <use xlink:href="#DejaVuSans-6c" transform="translate(1011.279297 0)"/>
       <use xlink:href="#DejaVuSans-6c" transform="translate(1039.0625 0)"/>
      </g>
     </g>
    </g>
    <g id="ytick_35">
     <g id="line2d_40">
      <g>
       <use xlink:href="#m1f93be09d7" x="176.437187" y="51.794438" style="stroke: #000000; stroke-width: 0.8"/>
      </g>
     </g>
     <g id="text_41">
      <!-- weather_main_Smoke -->
      <g transform="translate(59.6825 55.593657) scale(0.1 -0.1)">
       <use xlink:href="#DejaVuSans-77"/>
       <use xlink:href="#DejaVuSans-65" transform="translate(81.787109 0)"/>
       <use xlink:href="#DejaVuSans-61" transform="translate(143.310547 0)"/>
       <use xlink:href="#DejaVuSans-74" transform="translate(204.589844 0)"/>
       <use xlink:href="#DejaVuSans-68" transform="translate(243.798828 0)"/>
       <use xlink:href="#DejaVuSans-65" transform="translate(307.177734 0)"/>
       <use xlink:href="#DejaVuSans-72" transform="translate(368.701172 0)"/>
       <use xlink:href="#DejaVuSans-5f" transform="translate(409.814453 0)"/>
       <use xlink:href="#DejaVuSans-6d" transform="translate(459.814453 0)"/>
       <use xlink:href="#DejaVuSans-61" transform="translate(557.226562 0)"/>
       <use xlink:href="#DejaVuSans-69" transform="translate(618.505859 0)"/>
       <use xlink:href="#DejaVuSans-6e" transform="translate(646.289062 0)"/>
       <use xlink:href="#DejaVuSans-5f" transform="translate(709.667969 0)"/>
       <use xlink:href="#DejaVuSans-53" transform="translate(759.667969 0)"/>
       <use xlink:href="#DejaVuSans-6d" transform="translate(823.144531 0)"/>
       <use xlink:href="#DejaVuSans-6f" transform="translate(920.556641 0)"/>
       <use xlink:href="#DejaVuSans-6b" transform="translate(981.738281 0)"/>
       <use xlink:href="#DejaVuSans-65" transform="translate(1036.023438 0)"/>
      </g>
     </g>
    </g>
    <g id="ytick_36">
     <g id="line2d_41">
      <g>
       <use xlink:href="#m1f93be09d7" x="176.437187" y="42.554214" style="stroke: #000000; stroke-width: 0.8"/>
      </g>
     </g>
     <g id="text_42">
      <!-- holiday -->
      <g transform="translate(133.029375 46.353433) scale(0.1 -0.1)">
       <use xlink:href="#DejaVuSans-68"/>
       <use xlink:href="#DejaVuSans-6f" transform="translate(63.378906 0)"/>
       <use xlink:href="#DejaVuSans-6c" transform="translate(124.560547 0)"/>
       <use xlink:href="#DejaVuSans-69" transform="translate(152.34375 0)"/>
       <use xlink:href="#DejaVuSans-64" transform="translate(180.126953 0)"/>
       <use xlink:href="#DejaVuSans-61" transform="translate(243.603516 0)"/>
       <use xlink:href="#DejaVuSans-79" transform="translate(304.882812 0)"/>
      </g>
     </g>
    </g>
    <g id="text_43">
     <!-- Input Feature -->
     <g transform="translate(16.318125 244.369062) rotate(-90) scale(0.12 -0.12)">
      <defs>
       <path id="DejaVuSans-20" transform="scale(0.015625)"/>
      </defs>
      <use xlink:href="#DejaVuSans-49"/>
      <use xlink:href="#DejaVuSans-6e" transform="translate(29.492188 0)"/>
      <use xlink:href="#DejaVuSans-70" transform="translate(92.871094 0)"/>
      <use xlink:href="#DejaVuSans-75" transform="translate(156.347656 0)"/>
      <use xlink:href="#DejaVuSans-74" transform="translate(219.726562 0)"/>
      <use xlink:href="#DejaVuSans-20" transform="translate(258.935547 0)"/>
      <use xlink:href="#DejaVuSans-46" transform="translate(290.722656 0)"/>
      <use xlink:href="#DejaVuSans-65" transform="translate(342.742188 0)"/>
      <use xlink:href="#DejaVuSans-61" transform="translate(404.265625 0)"/>
      <use xlink:href="#DejaVuSans-74" transform="translate(465.544922 0)"/>
      <use xlink:href="#DejaVuSans-75" transform="translate(504.753906 0)"/>
      <use xlink:href="#DejaVuSans-72" transform="translate(568.132812 0)"/>
      <use xlink:href="#DejaVuSans-65" transform="translate(606.996094 0)"/>
     </g>
    </g>
   </g>
   <g id="patch_39">
    <path d="M 176.437187 386.198125 
L 176.437187 22.318125 
" style="fill: none; stroke: #000000; stroke-width: 0.8; stroke-linejoin: miter; stroke-linecap: square"/>
   </g>
   <g id="patch_40">
    <path d="M 562.247187 386.198125 
L 562.247187 22.318125 
" style="fill: none; stroke: #000000; stroke-width: 0.8; stroke-linejoin: miter; stroke-linecap: square"/>
   </g>
   <g id="patch_41">
    <path d="M 176.437187 386.198125 
L 562.247187 386.198125 
" style="fill: none; stroke: #000000; stroke-width: 0.8; stroke-linejoin: miter; stroke-linecap: square"/>
   </g>
   <g id="patch_42">
    <path d="M 176.437187 22.318125 
L 562.247187 22.318125 
" style="fill: none; stroke: #000000; stroke-width: 0.8; stroke-linejoin: miter; stroke-linecap: square"/>
   </g>
   <g id="text_44">
    <!-- Which features are the most important for predicting admission chances? -->
    <g transform="translate(147.950625 16.318125) scale(0.12 -0.12)">
     <defs>
      <path id="DejaVuSans-66" d="M 2375 4863 
L 2375 4384 
L 1825 4384 
Q 1516 4384 1395 4259 
Q 1275 4134 1275 3809 
L 1275 3500 
L 2222 3500 
L 2222 3053 
L 1275 3053 
L 1275 0 
L 697 0 
L 697 3053 
L 147 3053 
L 147 3500 
L 697 3500 
L 697 3744 
Q 697 4328 969 4595 
Q 1241 4863 1831 4863 
L 2375 4863 
z
" transform="scale(0.015625)"/>
      <path id="DejaVuSans-3f" d="M 1222 794 
L 1856 794 
L 1856 0 
L 1222 0 
L 1222 794 
z
M 1838 1253 
L 1241 1253 
L 1241 1734 
Q 1241 2050 1328 2253 
Q 1416 2456 1697 2725 
L 1978 3003 
Q 2156 3169 2236 3316 
Q 2316 3463 2316 3616 
Q 2316 3894 2111 4066 
Q 1906 4238 1569 4238 
Q 1322 4238 1042 4128 
Q 763 4019 459 3809 
L 459 4397 
Q 753 4575 1054 4662 
Q 1356 4750 1678 4750 
Q 2253 4750 2601 4447 
Q 2950 4144 2950 3647 
Q 2950 3409 2837 3195 
Q 2725 2981 2444 2713 
L 2169 2444 
Q 2022 2297 1961 2214 
Q 1900 2131 1875 2053 
Q 1856 1988 1847 1894 
Q 1838 1800 1838 1638 
L 1838 1253 
z
" transform="scale(0.015625)"/>
     </defs>
     <use xlink:href="#DejaVuSans-57"/>
     <use xlink:href="#DejaVuSans-68" transform="translate(98.876953 0)"/>
     <use xlink:href="#DejaVuSans-69" transform="translate(162.255859 0)"/>
     <use xlink:href="#DejaVuSans-63" transform="translate(190.039062 0)"/>
     <use xlink:href="#DejaVuSans-68" transform="translate(245.019531 0)"/>
     <use xlink:href="#DejaVuSans-20" transform="translate(308.398438 0)"/>
     <use xlink:href="#DejaVuSans-66" transform="translate(340.185547 0)"/>
     <use xlink:href="#DejaVuSans-65" transform="translate(375.390625 0)"/>
     <use xlink:href="#DejaVuSans-61" transform="translate(436.914062 0)"/>
     <use xlink:href="#DejaVuSans-74" transform="translate(498.193359 0)"/>
     <use xlink:href="#DejaVuSans-75" transform="translate(537.402344 0)"/>
     <use xlink:href="#DejaVuSans-72" transform="translate(600.78125 0)"/>
     <use xlink:href="#DejaVuSans-65" transform="translate(639.644531 0)"/>
     <use xlink:href="#DejaVuSans-73" transform="translate(701.167969 0)"/>
     <use xlink:href="#DejaVuSans-20" transform="translate(753.267578 0)"/>
     <use xlink:href="#DejaVuSans-61" transform="translate(785.054688 0)"/>
     <use xlink:href="#DejaVuSans-72" transform="translate(846.333984 0)"/>
     <use xlink:href="#DejaVuSans-65" transform="translate(885.197266 0)"/>
     <use xlink:href="#DejaVuSans-20" transform="translate(946.720703 0)"/>
     <use xlink:href="#DejaVuSans-74" transform="translate(978.507812 0)"/>
     <use xlink:href="#DejaVuSans-68" transform="translate(1017.716797 0)"/>
     <use xlink:href="#DejaVuSans-65" transform="translate(1081.095703 0)"/>
     <use xlink:href="#DejaVuSans-20" transform="translate(1142.619141 0)"/>
     <use xlink:href="#DejaVuSans-6d" transform="translate(1174.40625 0)"/>
     <use xlink:href="#DejaVuSans-6f" transform="translate(1271.818359 0)"/>
     <use xlink:href="#DejaVuSans-73" transform="translate(1333 0)"/>
     <use xlink:href="#DejaVuSans-74" transform="translate(1385.099609 0)"/>
     <use xlink:href="#DejaVuSans-20" transform="translate(1424.308594 0)"/>
     <use xlink:href="#DejaVuSans-69" transform="translate(1456.095703 0)"/>
     <use xlink:href="#DejaVuSans-6d" transform="translate(1483.878906 0)"/>
     <use xlink:href="#DejaVuSans-70" transform="translate(1581.291016 0)"/>
     <use xlink:href="#DejaVuSans-6f" transform="translate(1644.767578 0)"/>
     <use xlink:href="#DejaVuSans-72" transform="translate(1705.949219 0)"/>
     <use xlink:href="#DejaVuSans-74" transform="translate(1747.0625 0)"/>
     <use xlink:href="#DejaVuSans-61" transform="translate(1786.271484 0)"/>
     <use xlink:href="#DejaVuSans-6e" transform="translate(1847.550781 0)"/>
     <use xlink:href="#DejaVuSans-74" transform="translate(1910.929688 0)"/>
     <use xlink:href="#DejaVuSans-20" transform="translate(1950.138672 0)"/>
     <use xlink:href="#DejaVuSans-66" transform="translate(1981.925781 0)"/>
     <use xlink:href="#DejaVuSans-6f" transform="translate(2017.130859 0)"/>
     <use xlink:href="#DejaVuSans-72" transform="translate(2078.3125 0)"/>
     <use xlink:href="#DejaVuSans-20" transform="translate(2119.425781 0)"/>
     <use xlink:href="#DejaVuSans-70" transform="translate(2151.212891 0)"/>
     <use xlink:href="#DejaVuSans-72" transform="translate(2214.689453 0)"/>
     <use xlink:href="#DejaVuSans-65" transform="translate(2253.552734 0)"/>
     <use xlink:href="#DejaVuSans-64" transform="translate(2315.076172 0)"/>
     <use xlink:href="#DejaVuSans-69" transform="translate(2378.552734 0)"/>
     <use xlink:href="#DejaVuSans-63" transform="translate(2406.335938 0)"/>
     <use xlink:href="#DejaVuSans-74" transform="translate(2461.316406 0)"/>
     <use xlink:href="#DejaVuSans-69" transform="translate(2500.525391 0)"/>
     <use xlink:href="#DejaVuSans-6e" transform="translate(2528.308594 0)"/>
     <use xlink:href="#DejaVuSans-67" transform="translate(2591.6875 0)"/>
     <use xlink:href="#DejaVuSans-20" transform="translate(2655.164062 0)"/>
     <use xlink:href="#DejaVuSans-61" transform="translate(2686.951172 0)"/>
     <use xlink:href="#DejaVuSans-64" transform="translate(2748.230469 0)"/>
     <use xlink:href="#DejaVuSans-6d" transform="translate(2811.707031 0)"/>
     <use xlink:href="#DejaVuSans-69" transform="translate(2909.119141 0)"/>
     <use xlink:href="#DejaVuSans-73" transform="translate(2936.902344 0)"/>
     <use xlink:href="#DejaVuSans-73" transform="translate(2989.001953 0)"/>
     <use xlink:href="#DejaVuSans-69" transform="translate(3041.101562 0)"/>
     <use xlink:href="#DejaVuSans-6f" transform="translate(3068.884766 0)"/>
     <use xlink:href="#DejaVuSans-6e" transform="translate(3130.066406 0)"/>
     <use xlink:href="#DejaVuSans-20" transform="translate(3193.445312 0)"/>
     <use xlink:href="#DejaVuSans-63" transform="translate(3225.232422 0)"/>
     <use xlink:href="#DejaVuSans-68" transform="translate(3280.212891 0)"/>
     <use xlink:href="#DejaVuSans-61" transform="translate(3343.591797 0)"/>
     <use xlink:href="#DejaVuSans-6e" transform="translate(3404.871094 0)"/>
     <use xlink:href="#DejaVuSans-63" transform="translate(3468.25 0)"/>
     <use xlink:href="#DejaVuSans-65" transform="translate(3523.230469 0)"/>
     <use xlink:href="#DejaVuSans-73" transform="translate(3584.753906 0)"/>
     <use xlink:href="#DejaVuSans-3f" transform="translate(3636.853516 0)"/>
    </g>
   </g>
  </g>
 </g>
 <defs>
  <clipPath id="p149c1d8a37">
   <rect x="176.437187" y="22.318125" width="385.81" height="363.88"/>
  </clipPath>
 </defs>
</svg>
